<svg width="106" height="61" viewBox="0 0 106 61" fill="none" xmlns="http://www.w3.org/2000/svg">
<path d="M17.1748 26.3677L22.5714 34.0621C22.8901 34.5164 23.4117 34.7847 23.9665 34.7797L33.3624 34.6948C34.7594 34.6822 35.5646 36.2775 34.7248 37.3944L29.0769 44.9061C28.7434 45.3496 28.6494 45.9288 28.8257 46.4551L31.81 55.3677C32.2536 56.6929 30.9857 57.9517 29.6643 57.498L20.7771 54.4461C20.2523 54.2658 19.6725 54.3556 19.2266 54.6857L11.675 60.279C10.5522 61.1105 8.96351 60.2933 8.98649 58.896L9.14184 49.4981C9.15097 48.9431 8.88671 48.4193 8.43484 48.0972L0.783431 42.6414C-0.354169 41.8303 -0.0681878 40.0662 1.26756 39.6564L10.2508 36.9C10.7812 36.7372 11.1976 36.3238 11.3642 35.7945L14.1869 26.8294C14.6068 25.4966 16.3724 25.2236 17.1748 26.3677Z" fill="url(#paint0_linear_6209_2123)"/>
<path d="M16.5695 26.4313L21.7951 33.8818C22.1036 34.3217 22.6088 34.5816 23.146 34.5767L32.2441 34.4945C33.5968 34.4823 34.3764 36.027 33.5633 37.1085L28.0944 44.3822C27.7714 44.8117 27.6804 45.3724 27.851 45.8821L30.7407 54.5121C31.1704 55.7952 29.9426 57.0142 28.663 56.5748L20.0575 53.6196C19.5495 53.4451 18.9881 53.5319 18.5563 53.8516L11.2441 59.2675C10.1569 60.0727 8.61855 59.2813 8.6409 57.9283L8.79138 48.8282C8.80035 48.2908 8.54428 47.7836 8.1069 47.4717L0.697999 42.1888C-0.403559 41.4033 -0.126552 39.6953 1.16671 39.2984L9.86523 36.6294C10.3788 36.4718 10.782 36.0714 10.9433 35.559L13.6767 26.8781C14.0829 25.5879 15.7925 25.3236 16.5695 26.4313Z" fill="url(#paint1_linear_6209_2123)"/>
<path d="M16.43 26.4457L21.6161 33.8398C21.9224 34.2764 22.4237 34.5343 22.9567 34.5296L31.9861 34.448C33.3286 34.4359 34.1023 35.969 33.2952 37.0423L27.8677 44.261C27.5472 44.6872 27.4569 45.2439 27.6263 45.7496L30.494 54.3144C30.9204 55.5879 29.7019 56.7977 28.4321 56.3616L19.8916 53.4287C19.3873 53.2555 18.8302 53.3416 18.4018 53.659L11.1448 59.0341C10.0657 59.8332 8.53905 59.0479 8.56124 57.705L8.71044 48.6736C8.71926 48.1404 8.46523 47.6369 8.031 47.3274L0.678145 42.0845C-0.415072 41.305 -0.140126 39.6097 1.14337 39.216L9.77612 36.5671C10.2859 36.4108 10.686 36.0134 10.846 35.5047L13.5588 26.8894C13.9622 25.6084 15.6588 25.3462 16.43 26.4457Z" fill="url(#paint2_linear_6209_2123)"/>
<path d="M17.1019 29.0918L21.5227 35.395C21.7837 35.7671 22.2111 35.9869 22.6655 35.9828L30.3626 35.9132C31.5069 35.9028 32.1664 37.2097 31.4786 38.1246L26.8519 44.2781C26.5787 44.6415 26.5017 45.116 26.6462 45.5471L29.0907 52.8482C29.4543 53.9337 28.4155 54.9649 27.333 54.5932L20.0527 52.0931C19.6229 51.9454 19.1479 52.019 18.7828 52.2894L12.5966 56.8713C11.6769 57.5525 10.3754 56.8831 10.3943 55.7384L10.5215 48.0398C10.529 47.5852 10.3125 47.1561 9.94228 46.8922L3.67447 42.4229C2.74257 41.7584 2.97693 40.3134 4.07109 39.9776L11.4299 37.7197C11.8645 37.5863 12.2055 37.2477 12.342 36.8141L14.6543 29.47C14.9982 28.3782 16.4446 28.1546 17.1019 29.0918Z" fill="url(#paint3_linear_6209_2123)"/>
<path d="M26.1837 43.9222C25.9177 44.2755 25.8436 44.7379 25.984 45.1572L28.3645 52.2671C28.7181 53.3242 27.7073 54.3275 26.652 53.9656L19.563 51.5318C19.1447 51.3879 18.6826 51.4592 18.3272 51.7229L12.3035 56.1838C11.408 56.8473 10.1401 56.1963 10.1598 55.0815L10.2517 49.4346L10.2822 47.5845C10.2909 47.1421 10.0793 46.724 9.71906 46.4675L3.61603 42.1158C2.70837 41.4678 2.93626 40.0619 4.00256 39.7346L11.168 37.5362C11.5902 37.4064 11.9228 37.0764 12.0563 36.654L14.3078 29.5028C14.642 28.4403 16.05 28.2225 16.6906 29.1344L20.9953 35.2721C21.2487 35.6348 21.6653 35.8489 22.1083 35.8448L29.603 35.777C29.7316 35.7752 29.8531 35.7914 29.9669 35.8215C30.847 36.0552 31.2822 37.1415 30.6888 37.9305L26.1837 43.9222Z" fill="url(#paint4_linear_6209_2123)"/>
<g opacity="0.6">
<path d="M26.1839 43.9225C25.9179 44.2758 25.8437 44.7382 25.9841 45.1574L28.3646 52.2674C28.7183 53.3244 27.7074 54.3278 26.6521 53.9658L19.5632 51.532C19.1449 51.3881 18.6828 51.4594 18.3274 51.7232L12.3037 56.1841C11.4081 56.8475 10.1402 56.1966 10.1599 55.0817L10.2518 49.4348C20.1076 46.1414 26.7845 39.5662 29.967 35.8218C30.8471 36.0554 31.2823 37.1417 30.6889 37.9308L26.1839 43.9225Z" fill="#F8A45B"/>
</g>
<path d="M88.1196 26.3677L82.723 34.0621C82.4044 34.5164 81.8827 34.7847 81.3279 34.7797L71.932 34.6948C70.535 34.6822 69.73 36.2775 70.5696 37.3944L76.2175 44.9061C76.551 45.3496 76.6449 45.9288 76.4687 46.4551L73.4845 55.3677C73.0408 56.6929 74.3087 57.9517 75.6301 57.498L84.5174 54.4461C85.0421 54.2658 85.6219 54.3556 86.0678 54.6857L93.6194 60.279C94.7422 61.1105 96.3309 60.2933 96.3077 58.896L96.1524 49.4981C96.1433 48.9431 96.4077 48.4193 96.8594 48.0972L104.511 42.6414C105.648 41.8303 105.362 40.0662 104.027 39.6564L95.0434 36.9C94.5131 36.7372 94.0966 36.3238 93.9301 35.7945L91.1073 26.8294C90.6876 25.4966 88.9222 25.2236 88.1196 26.3677Z" fill="url(#paint5_linear_6209_2123)"/>
<path d="M88.7264 26.4313L83.5008 33.8818C83.1924 34.3217 82.6871 34.5816 82.15 34.5767L73.0519 34.4945C71.6991 34.4823 70.9196 36.027 71.7326 37.1085L77.2016 44.3822C77.5245 44.8117 77.6153 45.3724 77.4447 45.8821L74.5551 54.5121C74.1254 55.7952 75.3532 57.0142 76.6327 56.5748L85.2383 53.6196C85.7463 53.4451 86.3077 53.5319 86.7394 53.8516L94.0517 59.2675C95.1389 60.0727 96.6772 59.2813 96.6548 57.9283L96.5044 48.8282C96.4956 48.2908 96.7515 47.7836 97.1889 47.4717L104.598 42.1888C105.699 41.4033 105.422 39.6953 104.129 39.2984L95.4305 36.6294C94.917 36.4718 94.5137 36.0714 94.3524 35.559L91.6191 26.8781C91.2129 25.5879 89.5033 25.3236 88.7264 26.4313Z" fill="url(#paint6_linear_6209_2123)"/>
<path d="M88.8659 26.4457L83.6798 33.8398C83.3737 34.2764 82.8723 34.5343 82.3392 34.5296L73.3099 34.448C71.9673 34.4359 71.1936 35.969 72.0007 37.0423L77.4284 44.261C77.7488 44.6872 77.8392 45.2439 77.6698 45.7496L74.8021 54.3144C74.3757 55.5879 75.5942 56.7977 76.864 56.3616L85.4045 53.4287C85.9088 53.2555 86.4659 53.3416 86.8943 53.659L94.1514 59.0341C95.2304 59.8332 96.757 59.0479 96.7348 57.705L96.5856 48.6736C96.5768 48.1404 96.8309 47.6369 97.2651 47.3274L104.618 42.0845C105.711 41.305 105.436 39.6097 104.153 39.216L95.52 36.5671C95.0102 36.4108 94.6101 36.0134 94.4501 35.5047L91.7373 26.8894C91.3336 25.6084 89.637 25.3462 88.8659 26.4457Z" fill="url(#paint7_linear_6209_2123)"/>
<path d="M88.1937 29.0918L83.7728 35.395C83.5119 35.7671 83.0844 35.9869 82.6301 35.9828L74.933 35.9132C73.7886 35.9028 73.129 37.2097 73.817 38.1246L78.4437 44.2781C78.7169 44.6415 78.7939 45.116 78.6496 45.5471L76.205 52.8482C75.8416 53.9337 76.8802 54.9649 77.9627 54.5932L85.243 52.0931C85.6728 51.9454 86.1479 52.019 86.5131 52.2894L92.6993 56.8713C93.619 57.5525 94.9205 56.8831 94.9016 55.7384L94.7743 48.0398C94.7667 47.5852 94.9833 47.1561 95.3535 46.8922L101.621 42.4229C102.553 41.7584 102.319 40.3134 101.225 39.9776L93.8659 37.7197C93.4315 37.5863 93.0902 37.2477 92.9538 36.8141L90.6414 29.47C90.2972 28.3782 88.851 28.1546 88.1937 29.0918Z" fill="url(#paint8_linear_6209_2123)"/>
<path d="M79.1115 43.9222C79.3775 44.2755 79.4516 44.7379 79.3113 45.1572L76.9308 52.2671C76.5771 53.3242 77.588 54.3275 78.6433 53.9656L85.7322 51.5318C86.1506 51.3879 86.6127 51.4592 86.968 51.7229L92.9917 56.1838C93.8871 56.8473 95.1552 56.1963 95.1355 55.0815L95.0436 49.4346L95.0131 47.5845C95.0044 47.1421 95.2159 46.724 95.5762 46.4675L101.679 42.1158C102.587 41.4678 102.359 40.0619 101.293 39.7346L94.1274 37.5362C93.7052 37.4064 93.3726 37.0764 93.2392 36.654L90.9875 29.5028C90.6534 28.4403 89.2454 28.2225 88.6049 29.1344L84.3001 35.2721C84.0467 35.6348 83.6301 35.8489 83.1871 35.8448L75.6924 35.777C75.564 35.7752 75.4425 35.7914 75.3287 35.8215C74.4486 36.0552 74.0134 37.1415 74.6068 37.9305L79.1115 43.9222Z" fill="url(#paint9_linear_6209_2123)"/>
<g opacity="0.6">
<path d="M79.1122 43.9225C79.3781 44.2758 79.4523 44.7382 79.3119 45.1574L76.9314 52.2674C76.5777 53.3244 77.5887 54.3278 78.644 53.9658L85.7329 51.532C86.1512 51.3881 86.6133 51.4594 86.9687 51.7232L92.9924 56.1841C93.8878 56.8475 95.1558 56.1966 95.1361 55.0817L95.0442 49.4348C85.1884 46.1414 78.5116 39.5662 75.3292 35.8218C74.4491 36.0554 74.0139 37.1417 74.6073 37.9308L79.1122 43.9225Z" fill="#F8A45B"/>
</g>
<path d="M55.4907 2.09645L62.3384 15.9756C62.7427 16.795 63.5243 17.363 64.4283 17.4943L79.7403 19.72C82.0169 20.0509 82.926 22.8495 81.2786 24.4559L70.1988 35.2593C69.5447 35.8972 69.2461 36.8162 69.4005 37.7169L72.016 52.9715C72.4049 55.2397 70.0251 56.9693 67.9888 55.8984L54.2933 48.6962C53.4847 48.2709 52.5188 48.2709 51.7101 48.6962L38.0147 55.8984C35.9784 56.9693 33.5985 55.2395 33.9874 52.9715L36.6031 37.7169C36.7575 36.8162 36.4589 35.8972 35.8048 35.2593L24.725 24.456C23.0776 22.8497 23.9867 20.0511 26.2633 19.7202L41.5753 17.4945C42.4793 17.363 43.2609 16.7952 43.6652 15.9757L50.5129 2.0966C51.5308 0.0329287 54.4726 0.03293 55.4907 2.09645Z" fill="url(#paint10_linear_6209_2123)"/>
<path d="M54.4889 2.04758L61.1195 15.4868C61.5111 16.2803 62.2678 16.8302 63.1432 16.9576L77.9698 19.1127C80.1743 19.4331 81.0544 22.1431 79.4593 23.6985L68.7306 34.1595C68.0971 34.7772 67.8082 35.6671 67.9577 36.5392L70.4904 51.3103C70.867 53.5066 68.5625 55.1814 66.5908 54.1445L53.3294 47.1705C52.5464 46.7588 51.611 46.7588 50.828 47.1705L37.5669 54.1445C35.5951 55.1814 33.2906 53.5066 33.6672 51.3103L36.1999 36.5392C36.3495 35.667 36.0605 34.7772 35.427 34.1595L24.6983 23.6985C23.1032 22.1431 23.9835 19.4333 26.1879 19.1127L41.0145 16.9576C41.8898 16.8304 42.6466 16.2803 43.0381 15.4868L49.6687 2.04758C50.6544 0.0492436 53.503 0.0492436 54.4889 2.04758Z" fill="url(#paint11_linear_6209_2123)"/>
<path d="M54.2578 2.03625L60.8384 15.3739C61.227 16.1614 61.9779 16.7073 62.8467 16.8335L77.5612 18.9723C79.749 19.2903 80.6225 21.9798 79.0395 23.5235L68.3921 33.9054C67.7635 34.5183 67.4766 35.4016 67.625 36.2671L70.1385 50.9267C70.5123 53.1064 68.2251 54.7684 66.2683 53.7394L53.1072 46.818C52.3302 46.4093 51.4017 46.4093 50.6247 46.818L37.4636 53.7394C35.5068 54.7686 33.2197 53.1064 33.5935 50.9267L36.1069 36.2671C36.2554 35.4016 35.9684 34.5185 35.3398 33.9054L24.6922 23.5235C23.1091 21.9798 23.9827 19.2903 26.1705 18.9723L40.8851 16.8335C41.7539 16.7073 42.5049 16.1614 42.8934 15.3739L49.4739 2.03625C50.4524 0.0530221 53.2794 0.0530221 54.2578 2.03625Z" fill="url(#paint12_linear_6209_2123)"/>
<path d="M54.6859 6.51108L60.2954 17.8807C60.6265 18.552 61.2668 19.0172 62.0073 19.1249L74.5505 20.9481C76.4155 21.2192 77.1601 23.5118 75.8107 24.8277L66.7342 33.6776C66.1983 34.2002 65.9539 34.953 66.0803 35.6908L68.223 48.1871C68.5415 50.0452 66.592 51.4621 64.9238 50.5849L53.7049 44.685C53.0424 44.3365 52.2511 44.3365 51.5888 44.685L40.3699 50.5849C38.7017 51.4621 36.7522 50.0452 37.0707 48.1871L39.2134 35.6908C39.3399 34.953 39.0954 34.2002 38.5595 33.6776L29.4831 24.8277C28.1336 23.5118 28.8782 21.2192 30.7432 20.9481L43.2864 19.1249C44.0271 19.0172 44.6672 18.552 44.9985 17.8807L50.608 6.51108C51.4421 4.82053 53.8519 4.82053 54.6859 6.51108Z" fill="url(#paint13_linear_6209_2123)"/>
<path d="M65.7369 32.9307C65.2153 33.4387 64.9785 34.1724 65.1014 34.8901L67.1879 47.0595C67.4976 48.8686 65.6003 50.2471 63.9739 49.3927L53.0495 43.6486C52.4049 43.3092 51.6351 43.3092 50.9904 43.6486L40.0662 49.3927C38.4421 50.2471 36.5424 48.8686 36.8545 47.0595L38.4238 37.8932L38.9386 34.8901C39.0639 34.1724 38.8247 33.4387 38.3031 32.9307L29.4653 24.3134C28.1509 23.0306 28.8754 20.8 30.6931 20.5357L42.9065 18.7608C43.6264 18.6559 44.2505 18.2025 44.5739 17.5487L50.036 6.47744C50.8469 4.83239 53.1931 4.83239 54.0063 6.47744L59.4684 17.5487C59.7897 18.2025 60.4138 18.6559 61.1359 18.7608L73.3493 20.5357C73.5588 20.5653 73.7525 20.6223 73.93 20.6998C75.3036 21.3013 75.7386 23.1788 74.5746 24.3134L65.7369 32.9307Z" fill="url(#paint14_linear_6209_2123)"/>
<g opacity="0.6">
<path d="M65.7357 32.9306C65.2141 33.4387 64.9772 34.1723 65.1002 34.8901L67.1867 47.0594C67.4964 48.8685 65.5991 50.247 63.9727 49.3926L53.0483 43.6486C52.4037 43.3091 51.6339 43.3091 50.9892 43.6486L40.065 49.3926C38.4409 50.247 36.5412 48.8685 36.8533 47.0594L38.4226 37.8932C55.2896 35.0132 67.8082 25.9927 73.9287 20.6997C75.3022 21.3013 75.7372 23.1787 74.5732 24.3133L65.7357 32.9306Z" fill="#F8A45B"/>
</g>
<defs>
<linearGradient id="paint0_linear_6209_2123" x1="7.96425" y1="27.6777" x2="26.9757" y2="54.6725" gradientUnits="userSpaceOnUse">
<stop stop-color="#F8A45B"/>
<stop offset="0.2171" stop-color="#C97F40"/>
<stop offset="0.4733" stop-color="#985825"/>
<stop offset="0.6987" stop-color="#743C11"/>
<stop offset="0.8819" stop-color="#5E2B04"/>
<stop offset="1" stop-color="#562500"/>
</linearGradient>
<linearGradient id="paint1_linear_6209_2123" x1="14.8113" y1="40.2649" x2="43.5643" y2="70.4353" gradientUnits="userSpaceOnUse">
<stop stop-color="#F8A45B"/>
<stop offset="0.3936" stop-color="#CC7937"/>
<stop offset="0.7917" stop-color="#A55318"/>
<stop offset="1" stop-color="#96440C"/>
</linearGradient>
<linearGradient id="paint2_linear_6209_2123" x1="12.951" y1="33.8977" x2="28.1335" y2="58.1408" gradientUnits="userSpaceOnUse">
<stop stop-color="#F8A45B"/>
<stop offset="0.3936" stop-color="#CC7937"/>
<stop offset="0.7917" stop-color="#A55318"/>
<stop offset="1" stop-color="#96440C"/>
</linearGradient>
<linearGradient id="paint3_linear_6209_2123" x1="8.55617" y1="31.7266" x2="36.013" y2="64.1719" gradientUnits="userSpaceOnUse">
<stop stop-color="#F8A45B"/>
<stop offset="0.2171" stop-color="#C97F40"/>
<stop offset="0.4733" stop-color="#985825"/>
<stop offset="0.6987" stop-color="#743C11"/>
<stop offset="0.8819" stop-color="#5E2B04"/>
<stop offset="1" stop-color="#562500"/>
</linearGradient>
<linearGradient id="paint4_linear_6209_2123" x1="14.719" y1="37.0801" x2="23.3258" y2="50.3875" gradientUnits="userSpaceOnUse">
<stop offset="5.4e-07" stop-color="#FBE774"/>
<stop offset="0.1675" stop-color="#FADA6F"/>
<stop offset="0.7142" stop-color="#F9B361"/>
<stop offset="1" stop-color="#F8A45B"/>
</linearGradient>
<linearGradient id="paint5_linear_6209_2123" x1="97.3302" y1="27.6777" x2="78.3187" y2="54.6725" gradientUnits="userSpaceOnUse">
<stop stop-color="#F8A45B"/>
<stop offset="0.2171" stop-color="#C97F40"/>
<stop offset="0.4733" stop-color="#985825"/>
<stop offset="0.6987" stop-color="#743C11"/>
<stop offset="0.8819" stop-color="#5E2B04"/>
<stop offset="1" stop-color="#562500"/>
</linearGradient>
<linearGradient id="paint6_linear_6209_2123" x1="90.4845" y1="40.2649" x2="61.7315" y2="70.4352" gradientUnits="userSpaceOnUse">
<stop stop-color="#F8A45B"/>
<stop offset="0.3936" stop-color="#CC7937"/>
<stop offset="0.7917" stop-color="#A55318"/>
<stop offset="1" stop-color="#96440C"/>
</linearGradient>
<linearGradient id="paint7_linear_6209_2123" x1="92.3448" y1="33.8977" x2="77.1624" y2="58.1408" gradientUnits="userSpaceOnUse">
<stop stop-color="#F8A45B"/>
<stop offset="0.3936" stop-color="#CC7937"/>
<stop offset="0.7917" stop-color="#A55318"/>
<stop offset="1" stop-color="#96440C"/>
</linearGradient>
<linearGradient id="paint8_linear_6209_2123" x1="96.7394" y1="31.7266" x2="69.2825" y2="64.1718" gradientUnits="userSpaceOnUse">
<stop stop-color="#F8A45B"/>
<stop offset="0.2171" stop-color="#C97F40"/>
<stop offset="0.4733" stop-color="#985825"/>
<stop offset="0.6987" stop-color="#743C11"/>
<stop offset="0.8819" stop-color="#5E2B04"/>
<stop offset="1" stop-color="#562500"/>
</linearGradient>
<linearGradient id="paint9_linear_6209_2123" x1="90.5762" y1="37.0801" x2="81.9694" y2="50.3875" gradientUnits="userSpaceOnUse">
<stop offset="5.4e-07" stop-color="#FBE774"/>
<stop offset="0.1675" stop-color="#FADA6F"/>
<stop offset="0.7142" stop-color="#F9B361"/>
<stop offset="1" stop-color="#F8A45B"/>
</linearGradient>
<linearGradient id="paint10_linear_6209_2123" x1="40.1716" y1="1.91223" x2="64.3224" y2="50.6251" gradientUnits="userSpaceOnUse">
<stop stop-color="#F8A45B"/>
<stop offset="0.2171" stop-color="#C97F40"/>
<stop offset="0.4733" stop-color="#985825"/>
<stop offset="0.6987" stop-color="#743C11"/>
<stop offset="0.8819" stop-color="#5E2B04"/>
<stop offset="1" stop-color="#562500"/>
</linearGradient>
<linearGradient id="paint11_linear_6209_2123" x1="48.1495" y1="24.1179" x2="87.3559" y2="80.448" gradientUnits="userSpaceOnUse">
<stop stop-color="#F8A45B"/>
<stop offset="0.3936" stop-color="#CC7937"/>
<stop offset="0.7917" stop-color="#A55318"/>
<stop offset="1" stop-color="#96440C"/>
</linearGradient>
<linearGradient id="paint12_linear_6209_2123" x1="46.7222" y1="13.2887" x2="65.3334" y2="56.5606" gradientUnits="userSpaceOnUse">
<stop stop-color="#F8A45B"/>
<stop offset="0.3936" stop-color="#CC7937"/>
<stop offset="0.7917" stop-color="#A55318"/>
<stop offset="1" stop-color="#96440C"/>
</linearGradient>
<linearGradient id="paint13_linear_6209_2123" x1="40.1159" y1="8.64977" x2="76.6407" y2="68.3565" gradientUnits="userSpaceOnUse">
<stop stop-color="#F8A45B"/>
<stop offset="0.2171" stop-color="#C97F40"/>
<stop offset="0.4733" stop-color="#985825"/>
<stop offset="0.6987" stop-color="#743C11"/>
<stop offset="0.8819" stop-color="#5E2B04"/>
<stop offset="1" stop-color="#562500"/>
</linearGradient>
<linearGradient id="paint14_linear_6209_2123" x1="48.7995" y1="18.9122" x2="59.4596" y2="42.7335" gradientUnits="userSpaceOnUse">
<stop offset="5.4e-07" stop-color="#FBE774"/>
<stop offset="0.1675" stop-color="#FADA6F"/>
<stop offset="0.7142" stop-color="#F9B361"/>
<stop offset="1" stop-color="#F8A45B"/>
</linearGradient>
</defs>
</svg>
