<svg width="106" height="61" viewBox="0 0 106 61" fill="none" xmlns="http://www.w3.org/2000/svg">
<path d="M17.5294 26.0975L22.9063 33.7636C23.2238 34.2163 23.7435 34.4836 24.2962 34.4785L33.6576 34.394C35.0495 34.3814 35.8517 35.9709 35.015 37.0836L29.3878 44.5678C29.0556 45.0097 28.962 45.5867 29.1376 46.1111L32.1109 54.991C32.5529 56.3113 31.2897 57.5655 29.9731 57.1134L21.1185 54.0728C20.5957 53.8932 20.018 53.9826 19.5738 54.3115L12.0499 59.8842C10.9312 60.7127 9.34834 59.8985 9.37124 58.5063L9.52602 49.1429C9.53511 48.5899 9.27182 48.0681 8.82162 47.7471L1.19831 42.3114C0.06489 41.5033 0.349821 39.7457 1.68067 39.3374L10.6309 36.5911C11.1594 36.4289 11.5743 36.017 11.7402 35.4896L14.5525 26.5575C14.9709 25.2296 16.73 24.9576 17.5294 26.0975Z" fill="url(#paint0_linear_6209_2100)"/>
<path d="M16.9259 26.1607L22.1323 33.5838C22.4397 34.0221 22.943 34.281 23.4782 34.2762L32.5429 34.1943C33.8907 34.1821 34.6674 35.7212 33.8573 36.7986L28.4085 44.0456C28.0867 44.4735 27.996 45.0322 28.166 45.54L31.0451 54.1383C31.4731 55.4167 30.2499 56.6313 28.975 56.1935L20.4011 53.2491C19.8949 53.0753 19.3356 53.1617 18.9055 53.4803L11.6201 58.8762C10.5368 59.6785 9.00418 58.89 9.02645 57.542L9.17636 48.4753C9.1853 47.9399 8.93017 47.4345 8.4944 47.1238L1.11272 41.8603C0.0152065 41.0777 0.291196 39.3759 1.5797 38.9805L10.2463 36.3213C10.7579 36.1643 11.1597 35.7654 11.3204 35.2548L14.0437 26.6058C14.4485 25.3204 16.1517 25.057 16.9259 26.1607Z" fill="url(#paint1_linear_6209_2100)"/>
<path d="M16.7869 26.1756L21.9539 33.5426C22.2591 33.9775 22.7585 34.2345 23.2896 34.2298L32.2858 34.1485C33.6234 34.1364 34.3943 35.6639 33.5901 36.7332L28.1825 43.9255C27.8633 44.3501 27.7733 44.9047 27.942 45.4086L30.7992 53.9419C31.224 55.2108 30.01 56.4161 28.7449 55.9816L20.2357 53.0595C19.7333 52.8869 19.1782 52.9727 18.7514 53.2889L11.521 58.6442C10.446 59.4404 8.92491 58.658 8.94702 57.32L9.09568 48.3219C9.10446 47.7906 8.85137 47.289 8.41873 46.9806L1.09288 41.7569C0.00368172 40.9803 0.277618 39.2913 1.5564 38.899L10.1574 36.2598C10.6653 36.1041 11.0639 35.7082 11.2234 35.2013L13.9262 26.6176C14.3281 25.3414 16.0185 25.0801 16.7869 26.1756Z" fill="url(#paint2_linear_6209_2100)"/>
<path d="M17.4559 28.8118L21.8605 35.0918C22.1205 35.4626 22.5464 35.6816 22.9991 35.6775L30.6679 35.6082C31.8081 35.5978 32.4651 36.8999 31.7799 37.8114L27.1701 43.9424C26.8979 44.3044 26.8212 44.7772 26.9652 45.2066L29.4007 52.4809C29.763 53.5625 28.728 54.5899 27.6495 54.2195L20.396 51.7286C19.9677 51.5815 19.4945 51.6548 19.1307 51.9242L12.9673 56.4893C12.0509 57.168 10.7542 56.501 10.773 55.3605L10.8997 47.6902C10.9072 47.2373 10.6915 46.8097 10.3226 46.5468L4.07785 42.0939C3.14938 41.4319 3.38288 39.9922 4.47302 39.6576L11.8048 37.408C12.2378 37.2751 12.5776 36.9377 12.7135 36.5057L15.0174 29.1886C15.36 28.1008 16.8011 27.8781 17.4559 28.8118Z" fill="url(#paint3_linear_6209_2100)"/>
<path d="M26.5045 43.588C26.2395 43.94 26.1656 44.4007 26.3055 44.8184L28.6773 51.9022C29.0296 52.9554 28.0224 53.955 26.971 53.5944L19.9082 51.1696C19.4914 51.0262 19.031 51.0972 18.6769 51.36L12.6753 55.8045C11.7831 56.4655 10.5198 55.8169 10.5394 54.7062L10.631 49.08L10.6614 47.2368C10.67 46.796 10.4593 46.3794 10.1003 46.1239L4.01972 41.7882C3.11539 41.1426 3.34244 39.7418 4.40483 39.4157L11.5439 37.2254C11.9646 37.0961 12.296 36.7673 12.4289 36.3465L14.6723 29.2215C15.0052 28.1629 16.408 27.946 17.0462 28.8545L21.3351 34.9696C21.5876 35.331 22.0026 35.5443 22.4441 35.5402L29.9112 35.4726C30.0393 35.4709 30.1604 35.4871 30.2738 35.517C31.1506 35.7498 31.5842 36.8321 30.993 37.6183L26.5045 43.588Z" fill="url(#paint4_linear_6209_2100)"/>
<g opacity="0.6">
<path d="M26.5041 43.5881C26.2391 43.94 26.1653 44.4007 26.3051 44.8185L28.6769 51.9023C29.0292 52.9555 28.0221 53.9551 26.9707 53.5945L19.9078 51.1696C19.491 51.0263 19.0306 51.0973 18.6765 51.3601L12.6749 55.8046C11.7827 56.4656 10.5194 55.817 10.539 54.7063L10.6306 49.0801C20.4502 45.7988 27.1026 39.2478 30.2734 35.5171C31.1503 35.7499 31.5838 36.8322 30.9927 37.6184L26.5041 43.5881Z" fill="#F8A45B"/>
</g>
<path d="M88.6008 25.9089L83.224 33.5751C82.9066 34.0277 82.3868 34.295 81.834 34.29L72.4727 34.2055C71.0808 34.1929 70.2786 35.7824 71.1153 36.8951L76.7424 44.3793C77.0747 44.8211 77.1683 45.3982 76.9927 45.9226L74.0194 54.8025C73.5773 56.1227 74.8406 57.377 76.1572 56.9249L85.0118 53.8842C85.5346 53.7048 86.1123 53.794 86.5565 54.123L94.0804 59.6955C95.1991 60.524 96.7819 59.7098 96.759 58.3177L96.6043 48.9542C96.5952 48.4014 96.8584 47.8794 97.3086 47.5585L104.932 42.1227C106.066 41.3146 105.78 39.557 104.45 39.1487L95.4994 36.4024C94.9709 36.2402 94.556 35.8285 94.3901 35.301L91.5776 26.3688C91.1594 25.041 89.4002 24.7692 88.6008 25.9089Z" fill="url(#paint5_linear_6209_2100)"/>
<path d="M89.2046 25.9722L83.9981 33.3954C83.6908 33.8336 83.1874 34.0926 82.6522 34.0877L73.5876 34.0059C72.2398 33.9936 71.4631 35.5327 72.2732 36.6102L77.722 43.8572C78.0438 44.2851 78.1344 44.8438 77.9644 45.3516L75.0854 53.9499C74.6573 55.2283 75.8806 56.4428 77.1554 56.005L85.7293 53.0606C86.2355 52.8868 86.7949 52.9733 87.225 53.2919L94.5104 58.6878C95.5936 59.4901 97.1263 58.7016 97.104 57.3535L96.9541 48.287C96.9453 47.7516 97.2003 47.2462 97.6362 46.9355L105.018 41.672C106.115 40.8894 105.839 39.1877 104.551 38.7922L95.8842 36.133C95.3725 35.976 94.9708 35.5773 94.8101 35.0665L92.0867 26.4175C91.682 25.1318 89.9787 24.8686 89.2046 25.9722Z" fill="url(#paint6_linear_6209_2100)"/>
<path d="M89.3438 25.987L84.1768 33.3541C83.8716 33.7891 83.3722 34.046 82.8411 34.0413L73.8449 33.9601C72.5073 33.948 71.7364 35.4755 72.5405 36.5448L77.9481 43.737C78.2674 44.1616 78.3574 44.7163 78.1887 45.2201L75.3314 53.7535C74.9067 55.0223 76.1206 56.2276 77.3858 55.7931L85.8949 52.871C86.3974 52.6985 86.9524 52.7843 87.3793 53.1005L94.6096 58.4558C95.6847 59.252 97.2058 58.4696 97.1837 57.1316L97.035 48.1334C97.0262 47.6022 97.2793 47.1005 97.712 46.7921L105.038 41.5685C106.127 40.7917 105.853 39.1028 104.574 38.7105L95.9733 36.0714C95.4654 35.9156 95.0667 35.5197 94.9071 35.0129L92.2043 26.4292C91.8024 25.153 90.112 24.8916 89.3438 25.987Z" fill="url(#paint7_linear_6209_2100)"/>
<path d="M88.6746 28.6232L84.2699 34.9032C84.01 35.274 83.5841 35.493 83.1314 35.4889L75.4626 35.4196C74.3224 35.4092 73.6652 36.7113 74.3506 37.623L78.9603 43.7539C79.2326 44.1159 79.3093 44.5887 79.1653 45.0182L76.7298 52.2925C76.3675 53.374 77.4025 54.4014 78.481 54.0311L85.7345 51.5402C86.1628 51.3931 86.636 51.4663 86.9998 51.7358L93.1632 56.3008C94.0796 56.9795 95.3763 56.3126 95.3575 55.1721L95.2308 47.5017C95.2233 47.0489 95.439 46.6213 95.8078 46.3584L102.053 41.9055C102.981 41.2434 102.748 39.8038 101.657 39.4692L94.3257 37.2195C93.8927 37.0867 93.5529 36.7493 93.417 36.3173L91.1131 29.0002C90.7705 27.9124 89.3295 27.6896 88.6746 28.6232Z" fill="url(#paint8_linear_6209_2100)"/>
<path d="M79.6263 43.3997C79.8913 43.7517 79.9652 44.2123 79.8253 44.6301L77.4535 51.7139C77.1012 52.7671 78.1084 53.7667 79.1598 53.4061L86.2226 50.9812C86.6394 50.8379 87.0998 50.9089 87.4539 51.1715L93.4555 55.6161C94.3476 56.2771 95.611 55.6285 95.5914 54.5178L95.4998 48.8916L95.4694 47.0483C95.4608 46.6076 95.6716 46.191 96.0305 45.9354L102.111 41.5997C103.016 40.9543 102.788 39.5534 101.726 39.2272L94.5869 37.0369C94.1662 36.9076 93.8348 36.5789 93.7019 36.158L91.4585 29.033C91.1256 27.9744 89.7228 27.7575 89.0846 28.666L84.7957 34.7811C84.5432 35.1424 84.1282 35.3558 83.6867 35.3518L76.2196 35.2842C76.0915 35.2826 75.9706 35.2986 75.857 35.3285C74.9802 35.5612 74.5466 36.6436 75.1378 37.4298L79.6263 43.3997Z" fill="url(#paint9_linear_6209_2100)"/>
<path d="M55.7044 1.91498L62.5269 15.7431C62.9298 16.5595 63.7085 17.1255 64.6092 17.2563L79.8649 19.4738C82.1332 19.8035 83.0389 22.5918 81.3976 24.1923L70.3585 34.956C69.7068 35.5916 69.4093 36.5072 69.5632 37.4045L72.169 52.6031C72.5565 54.863 70.1854 56.5862 68.1566 55.5193L54.5114 48.3435C53.7058 47.9198 52.7434 47.9198 51.9377 48.3435L38.2926 55.5193C36.2638 56.5862 33.8927 54.8628 34.2802 52.6031L36.8862 37.4045C37.04 36.5072 36.7426 35.5916 36.0909 34.956L25.0518 24.1924C23.4104 22.592 24.3162 19.8037 26.5844 19.474L41.8401 17.2565C42.7409 17.1255 43.5195 16.5597 43.9224 15.7433L50.7449 1.91514C51.7591 -0.140957 54.69 -0.140956 55.7044 1.91498Z" fill="url(#paint10_linear_6209_2100)"/>
<path d="M54.7063 1.86629L61.3125 15.2562C61.7027 16.0467 62.4566 16.5946 63.3288 16.7215L78.1009 18.8688C80.2973 19.188 81.1742 21.888 79.5849 23.4377L68.8957 33.8603C68.2645 34.4756 67.9766 35.3624 68.1256 36.2312L70.649 50.9481C71.0243 53.1362 68.7282 54.8049 66.7637 53.7718L53.5511 46.8235C52.7709 46.4133 51.839 46.4133 51.0589 46.8235L37.8464 53.7718C35.8819 54.8049 33.5859 53.1362 33.9611 50.9481L36.4845 36.2312C36.6335 35.3622 36.3456 34.4756 35.7144 33.8603L25.0252 23.4377C23.4359 21.888 24.313 19.1881 26.5092 18.8688L41.2814 16.7215C42.1535 16.5948 42.9075 16.0467 43.2976 15.2562L49.9038 1.86629C50.8859 -0.124703 53.724 -0.124703 54.7063 1.86629Z" fill="url(#paint11_linear_6209_2100)"/>
<path d="M54.4756 1.855L61.032 15.1437C61.4192 15.9283 62.1673 16.4721 63.0329 16.5979L77.6933 18.7288C79.8732 19.0457 80.7435 21.7253 79.1663 23.2633L68.5579 33.6071C67.9316 34.2178 67.6458 35.0977 67.7937 35.9602L70.2979 50.5658C70.6703 52.7375 68.3915 54.3935 66.4419 53.3682L53.3292 46.4723C52.555 46.0651 51.63 46.0651 50.8558 46.4723L37.7431 53.3682C35.7935 54.3936 33.5147 52.7375 33.8871 50.5658L36.3914 35.9602C36.5392 35.0977 36.2534 34.2179 35.6271 33.6071L25.0186 23.2633C23.4413 21.7253 24.3117 19.0457 26.4915 18.7288L41.152 16.5979C42.0176 16.4721 42.7659 15.9283 43.1529 15.1437L49.7092 1.855C50.6841 -0.120938 53.5007 -0.120938 54.4756 1.855Z" fill="url(#paint12_linear_6209_2100)"/>
<path d="M54.9023 6.31306L60.4912 17.6409C60.8211 18.3097 61.459 18.7732 62.1968 18.8805L74.6939 20.6971C76.5521 20.9672 77.294 23.2514 75.9495 24.5624L66.9064 33.3798C66.3725 33.9004 66.129 34.6505 66.2549 35.3856L68.3897 47.836C68.707 49.6872 66.7646 51.099 65.1026 50.225L53.9249 44.3467C53.2649 43.9996 52.4764 43.9996 51.8166 44.3467L40.6389 50.225C38.9768 51.099 37.0345 49.6872 37.3518 47.836L39.4867 35.3856C39.6127 34.6505 39.369 33.9004 38.8351 33.3798L29.792 24.5624C28.4476 23.2514 29.1894 20.9672 31.0476 20.6971L43.5447 18.8805C44.2827 18.7732 44.9204 18.3097 45.2505 17.6409L50.8394 6.31306C51.6705 4.62872 54.0714 4.62872 54.9023 6.31306Z" fill="url(#paint13_linear_6209_2100)"/>
<path d="M65.9125 32.6356C65.3928 33.1418 65.1568 33.8727 65.2793 34.5879L67.3581 46.7125C67.6667 48.515 65.7764 49.8884 64.1559 49.0371L53.2717 43.3142C52.6294 42.976 51.8625 42.976 51.2202 43.3142L40.336 49.0371C38.7179 49.8884 36.8252 48.515 37.1362 46.7125L38.6997 37.5799L39.2126 34.5879C39.3375 33.8727 39.0991 33.1418 38.5795 32.6356L29.7741 24.05C28.4646 22.7719 29.1864 20.5495 30.9974 20.2862L43.166 18.5178C43.8832 18.4133 44.505 17.9615 44.8272 17.3101L50.2693 6.27955C51.0772 4.64054 53.4148 4.64054 54.225 6.27955L59.667 17.3101C59.9871 17.9615 60.6089 18.4133 61.3283 18.5178L73.4969 20.2862C73.7056 20.3157 73.8986 20.3724 74.0755 20.4496C75.444 21.049 75.8774 22.9195 74.7177 24.05L65.9125 32.6356Z" fill="url(#paint14_linear_6209_2100)"/>
<g opacity="0.6">
<path d="M65.9125 32.6367C65.3928 33.1428 65.1568 33.8738 65.2792 34.5889L67.3581 46.7136C67.6667 48.516 65.7764 49.8895 64.1559 49.0382L53.2717 43.3152C52.6294 42.977 51.8624 42.977 51.2201 43.3152L40.336 49.0382C38.7179 49.8895 36.8252 48.516 37.1361 46.7136L38.6997 37.581C55.5047 34.7116 67.9773 25.7242 74.0753 20.4507C75.4438 21.05 75.8772 22.9206 74.7175 24.051L65.9125 32.6367Z" fill="#F8A45B"/>
</g>
<defs>
<linearGradient id="paint0_linear_6209_2100" x1="8.35276" y1="27.4027" x2="27.2944" y2="54.2983" gradientUnits="userSpaceOnUse">
<stop stop-color="#F8A45B"/>
<stop offset="0.2171" stop-color="#C97F40"/>
<stop offset="0.4733" stop-color="#985825"/>
<stop offset="0.6987" stop-color="#743C11"/>
<stop offset="0.8819" stop-color="#5E2B04"/>
<stop offset="1" stop-color="#562500"/>
</linearGradient>
<linearGradient id="paint1_linear_6209_2100" x1="15.1742" y1="39.9435" x2="43.8215" y2="70.003" gradientUnits="userSpaceOnUse">
<stop stop-color="#F8A45B"/>
<stop offset="0.3936" stop-color="#CC7937"/>
<stop offset="0.7917" stop-color="#A55318"/>
<stop offset="1" stop-color="#96440C"/>
</linearGradient>
<linearGradient id="paint2_linear_6209_2100" x1="13.3207" y1="33.6002" x2="28.4474" y2="57.7543" gradientUnits="userSpaceOnUse">
<stop stop-color="#F8A45B"/>
<stop offset="0.3936" stop-color="#CC7937"/>
<stop offset="0.7917" stop-color="#A55318"/>
<stop offset="1" stop-color="#96440C"/>
</linearGradient>
<linearGradient id="paint3_linear_6209_2100" x1="8.94162" y1="31.4369" x2="36.2976" y2="63.763" gradientUnits="userSpaceOnUse">
<stop stop-color="#F8A45B"/>
<stop offset="0.2171" stop-color="#C97F40"/>
<stop offset="0.4733" stop-color="#985825"/>
<stop offset="0.6987" stop-color="#743C11"/>
<stop offset="0.8819" stop-color="#5E2B04"/>
<stop offset="1" stop-color="#562500"/>
</linearGradient>
<linearGradient id="paint4_linear_6209_2100" x1="15.0819" y1="36.7709" x2="23.657" y2="50.0295" gradientUnits="userSpaceOnUse">
<stop offset="5.4e-07" stop-color="#FBE774"/>
<stop offset="0.1675" stop-color="#FADA6F"/>
<stop offset="0.7142" stop-color="#F9B361"/>
<stop offset="1" stop-color="#F8A45B"/>
</linearGradient>
<linearGradient id="paint5_linear_6209_2100" x1="97.7775" y1="27.2142" x2="78.8359" y2="54.1099" gradientUnits="userSpaceOnUse">
<stop stop-color="#F8A45B"/>
<stop offset="0.2171" stop-color="#C97F40"/>
<stop offset="0.4733" stop-color="#985825"/>
<stop offset="0.6987" stop-color="#743C11"/>
<stop offset="0.8819" stop-color="#5E2B04"/>
<stop offset="1" stop-color="#562500"/>
</linearGradient>
<linearGradient id="paint6_linear_6209_2100" x1="90.9563" y1="39.7549" x2="62.309" y2="69.8144" gradientUnits="userSpaceOnUse">
<stop stop-color="#F8A45B"/>
<stop offset="0.3936" stop-color="#CC7937"/>
<stop offset="0.7917" stop-color="#A55318"/>
<stop offset="1" stop-color="#96440C"/>
</linearGradient>
<linearGradient id="paint7_linear_6209_2100" x1="92.8099" y1="33.4117" x2="77.6832" y2="57.5657" gradientUnits="userSpaceOnUse">
<stop stop-color="#F8A45B"/>
<stop offset="0.3936" stop-color="#CC7937"/>
<stop offset="0.7917" stop-color="#A55318"/>
<stop offset="1" stop-color="#96440C"/>
</linearGradient>
<linearGradient id="paint8_linear_6209_2100" x1="97.1889" y1="31.2484" x2="69.8329" y2="63.5745" gradientUnits="userSpaceOnUse">
<stop stop-color="#F8A45B"/>
<stop offset="0.2171" stop-color="#C97F40"/>
<stop offset="0.4733" stop-color="#985825"/>
<stop offset="0.6987" stop-color="#743C11"/>
<stop offset="0.8819" stop-color="#5E2B04"/>
<stop offset="1" stop-color="#562500"/>
</linearGradient>
<linearGradient id="paint9_linear_6209_2100" x1="88.7698" y1="-16.889" x2="88.7698" y2="52.7726" gradientUnits="userSpaceOnUse">
<stop stop-color="#F8A45B"/>
<stop offset="0.2171" stop-color="#C97F40"/>
<stop offset="0.4733" stop-color="#985825"/>
<stop offset="0.6987" stop-color="#743C11"/>
<stop offset="0.8819" stop-color="#5E2B04"/>
<stop offset="1" stop-color="#562500"/>
</linearGradient>
<linearGradient id="paint10_linear_6209_2100" x1="40.4416" y1="1.73144" x2="64.5037" y2="50.2654" gradientUnits="userSpaceOnUse">
<stop stop-color="#F8A45B"/>
<stop offset="0.2171" stop-color="#C97F40"/>
<stop offset="0.4733" stop-color="#985825"/>
<stop offset="0.6987" stop-color="#743C11"/>
<stop offset="0.8819" stop-color="#5E2B04"/>
<stop offset="1" stop-color="#562500"/>
</linearGradient>
<linearGradient id="paint11_linear_6209_2100" x1="48.3902" y1="23.8555" x2="87.4526" y2="79.9788" gradientUnits="userSpaceOnUse">
<stop stop-color="#F8A45B"/>
<stop offset="0.3936" stop-color="#CC7937"/>
<stop offset="0.7917" stop-color="#A55318"/>
<stop offset="1" stop-color="#96440C"/>
</linearGradient>
<linearGradient id="paint12_linear_6209_2100" x1="46.9676" y1="13.0661" x2="65.5104" y2="56.1791" gradientUnits="userSpaceOnUse">
<stop stop-color="#F8A45B"/>
<stop offset="0.3936" stop-color="#CC7937"/>
<stop offset="0.7917" stop-color="#A55318"/>
<stop offset="1" stop-color="#96440C"/>
</linearGradient>
<linearGradient id="paint13_linear_6209_2100" x1="40.3859" y1="8.4439" x2="76.7764" y2="67.9313" gradientUnits="userSpaceOnUse">
<stop stop-color="#F8A45B"/>
<stop offset="0.2171" stop-color="#C97F40"/>
<stop offset="0.4733" stop-color="#985825"/>
<stop offset="0.6987" stop-color="#743C11"/>
<stop offset="0.8819" stop-color="#5E2B04"/>
<stop offset="1" stop-color="#562500"/>
</linearGradient>
<linearGradient id="paint14_linear_6209_2100" x1="49.0373" y1="18.6687" x2="59.6582" y2="42.4024" gradientUnits="userSpaceOnUse">
<stop offset="5.4e-07" stop-color="#FBE774"/>
<stop offset="0.1675" stop-color="#FADA6F"/>
<stop offset="0.7142" stop-color="#F9B361"/>
<stop offset="1" stop-color="#F8A45B"/>
</linearGradient>
</defs>
</svg>
