<svg width="106" height="61" viewBox="0 0 106 61" fill="none" xmlns="http://www.w3.org/2000/svg">
<path d="M17.2269 26.0836L22.6392 33.8004C22.9589 34.2561 23.482 34.5251 24.0384 34.52L33.4616 34.4349C34.8626 34.4223 35.6701 36.0222 34.8279 37.1423L29.1636 44.6759C28.8291 45.1207 28.7349 45.7016 28.9117 46.2294L31.9046 55.168C32.3496 56.4969 31.078 57.7595 29.7527 57.3044L20.8396 54.2436C20.3134 54.0629 19.7319 54.1529 19.2847 54.484L11.7111 60.0934C10.5851 60.9274 8.99178 60.1078 9.01482 58.7065L9.17062 49.2812C9.17978 48.7246 8.91475 48.1993 8.46157 47.8763L0.787928 42.4046C-0.352977 41.5912 -0.0661644 39.822 1.27347 39.411L10.2828 36.6466C10.8147 36.4833 11.2324 36.0687 11.3994 35.5378L14.2303 26.5467C14.6515 25.21 16.4222 24.9362 17.2269 26.0836Z" fill="url(#paint0_linear_6209_1989)"/>
<path d="M16.6198 26.1472L21.8606 33.6193C22.17 34.0605 22.6766 34.3212 23.2154 34.3163L32.3399 34.2339C33.6966 34.2215 34.4784 35.7708 33.663 36.8554L28.1782 44.1502C27.8543 44.5809 27.763 45.1434 27.9341 45.6545L30.8322 54.3096C31.2631 55.5964 30.0317 56.819 28.7485 56.3783L20.118 53.4145C19.6084 53.2395 19.0454 53.3265 18.6124 53.6472L11.2789 59.0787C10.1885 59.8864 8.64575 59.0926 8.66817 57.7357L8.81908 48.6091C8.82807 48.0702 8.57126 47.5615 8.13261 47.2487L0.702188 41.9504C-0.402571 41.1627 -0.124759 39.4497 1.17226 39.0517L9.89605 36.3749C10.4111 36.2168 10.8155 35.8153 10.9773 35.3014L13.7186 26.5953C14.126 25.3013 15.8405 25.0362 16.6198 26.1472Z" fill="url(#paint1_linear_6209_1989)"/>
<path d="M16.4797 26.1621L21.6808 33.5777C21.988 34.0155 22.4908 34.2742 23.0254 34.2694L32.0809 34.1876C33.4274 34.1755 34.2033 35.713 33.3939 36.7894L27.9506 44.0291C27.6292 44.4566 27.5386 45.0149 27.7085 45.522L30.5846 54.1118C31.0122 55.389 29.7902 56.6022 28.5167 56.1649L19.9513 53.2234C19.4456 53.0498 18.8869 53.1361 18.4572 53.4544L11.1791 58.8451C10.0969 59.6466 8.56582 58.859 8.58807 57.5122L8.73771 48.4546C8.74655 47.9198 8.49179 47.4149 8.05629 47.1044L0.682074 41.8463C-0.414319 41.0645 -0.138574 39.3643 1.14865 38.9694L9.80648 36.3129C10.3177 36.1561 10.719 35.7576 10.8795 35.2474L13.6001 26.607C14.0047 25.3224 15.7063 25.0593 16.4797 26.1621Z" fill="url(#paint2_linear_6209_1989)"/>
<path d="M17.1533 28.8157L21.587 35.1371C21.8487 35.5104 22.2774 35.7308 22.7331 35.7267L30.4525 35.6569C31.6002 35.6465 32.2616 36.9572 31.5718 37.8747L26.9317 44.0461C26.6576 44.4106 26.5804 44.8864 26.7253 45.3188L29.177 52.6411C29.5416 53.7298 28.4998 54.764 27.4142 54.3912L20.1128 51.8838C19.6817 51.7357 19.2053 51.8095 18.8391 52.0807L12.635 56.6759C11.7125 57.3591 10.4073 56.6877 10.4263 55.5397L10.5538 47.8187C10.5614 47.3629 10.3442 46.9324 9.97292 46.6678L3.68689 42.1855C2.75229 41.5191 2.98733 40.0699 4.08467 39.7331L11.4649 37.4686C11.9007 37.3349 12.2427 36.9952 12.3796 36.5604L14.6987 29.195C15.0436 28.1 16.4942 27.8758 17.1533 28.8157Z" fill="url(#paint3_linear_6209_1989)"/>
<path d="M26.2617 43.6895C25.9949 44.0438 25.9206 44.5076 26.0614 44.928L28.4488 52.0587C28.8034 53.1188 27.7896 54.125 26.7313 53.762L19.6218 51.3212C19.2022 51.1768 18.7388 51.2484 18.3824 51.5128L12.3412 55.9867C11.443 56.6521 10.1714 55.9992 10.1911 54.8812L10.2833 49.2179L10.3139 47.3624C10.3226 46.9188 10.1105 46.4994 9.74917 46.2422L3.62841 41.8779C2.71812 41.228 2.94667 39.818 4.01607 39.4897L11.2023 37.2849C11.6258 37.1548 11.9593 36.8238 12.0932 36.4002L14.3513 29.2282C14.6864 28.1626 16.0985 27.9442 16.7409 28.8587L21.0581 35.0142C21.3123 35.378 21.7301 35.5927 22.1744 35.5886L29.6909 35.5206C29.8198 35.5188 29.9417 35.5351 30.0558 35.5653C30.9385 35.7996 31.3749 36.889 30.7798 37.6804L26.2617 43.6895Z" fill="url(#paint4_linear_6209_1989)"/>
<g opacity="0.6">
<path d="M26.2614 43.6892C25.9947 44.0435 25.9203 44.5072 26.0611 44.9277L28.4485 52.0584C28.8032 53.1185 27.7894 54.1247 26.731 53.7617L19.6215 51.3208C19.202 51.1765 18.7385 51.248 18.3821 51.5125L12.3409 55.9864C11.4428 56.6518 10.1712 55.9989 10.1909 54.8809L10.2831 49.2175C20.1675 45.9146 26.8638 39.3203 30.0556 35.5649C30.9382 35.7993 31.3747 36.8887 30.7796 37.6801L26.2614 43.6892Z" fill="#F8A45B"/>
</g>
<path d="M88.0608 25.8941L82.6485 33.6109C82.329 34.0665 81.8058 34.3356 81.2494 34.3305L71.8262 34.2454C70.4251 34.2328 69.6176 35.8327 70.4598 36.9528L76.1241 44.4864C76.4586 44.9312 76.5528 45.5121 76.376 46.0399L73.3831 54.9785C72.9381 56.3074 74.2097 57.57 75.535 57.1149L84.4481 54.0541C84.9743 53.8735 85.5558 53.9633 86.003 54.2945L93.5766 59.9038C94.7026 60.7378 96.2959 59.9181 96.2729 58.5168L96.1171 49.0915C96.1079 48.5351 96.373 48.0097 96.8261 47.6866L104.5 42.215C105.641 41.4015 105.354 39.6323 104.014 39.2213L95.0049 36.4569C94.473 36.2936 94.0553 35.8792 93.8883 35.3482L91.0572 26.3571C90.6362 25.0205 88.8655 24.7469 88.0608 25.8941Z" fill="url(#paint5_linear_6209_1989)"/>
<path d="M88.6686 25.9578L83.4278 33.4299C83.1185 33.8711 82.6118 34.1318 82.073 34.1269L72.9485 34.0444C71.5918 34.0321 70.81 35.5814 71.6254 36.6659L77.1102 43.9608C77.4341 44.3915 77.5254 44.9539 77.3543 45.465L74.4562 54.1201C74.0253 55.407 75.2567 56.6295 76.5399 56.1889L85.1704 53.225C85.68 53.0501 86.243 53.1371 86.676 53.4578L94.0095 58.8893C95.0999 59.6969 96.6427 58.9032 96.6202 57.5463L96.4693 48.4199C96.4605 47.881 96.7172 47.3722 97.156 47.0594L104.586 41.7612C105.691 40.9734 105.413 39.2605 104.116 38.8624L95.3924 36.1856C94.8773 36.0276 94.4729 35.6262 94.3111 35.1121L91.5698 26.406C91.1624 25.1118 89.4479 24.8468 88.6686 25.9578Z" fill="url(#paint6_linear_6209_1989)"/>
<path d="M88.8085 25.9725L83.6073 33.3883C83.3002 33.8261 82.7974 34.0847 82.2628 34.08L73.2072 33.9982C71.8608 33.9861 71.0848 35.5236 71.8943 36.6L77.3376 43.8397C77.6589 44.2671 77.7495 44.8254 77.5797 45.3326L74.7036 53.9223C74.276 55.1995 75.498 56.4128 76.7715 55.9754L85.3368 53.034C85.8426 52.8603 86.4013 52.9467 86.831 53.265L94.1091 58.6557C95.1913 59.4571 96.7224 58.6696 96.7001 57.3227L96.5505 48.2652C96.5416 47.7304 96.7964 47.2254 97.2319 46.915L104.606 41.6568C105.702 40.875 105.427 39.1749 104.139 38.78L95.4817 36.1235C94.9704 35.9667 94.5692 35.5681 94.4085 35.058L91.6879 26.4176C91.2833 25.133 89.5818 24.8699 88.8085 25.9725Z" fill="url(#paint7_linear_6209_1989)"/>
<path d="M88.135 28.6256L83.7013 34.9471C83.4396 35.3203 83.0109 35.5408 82.5552 35.5367L74.8358 35.4669C73.6881 35.4564 73.0265 36.7671 73.7165 37.6848L78.3566 43.8562C78.6307 44.2206 78.7079 44.6965 78.563 45.1288L76.1113 52.4512C75.7467 53.5398 76.7885 54.5741 77.8741 54.2013L85.1755 51.6939C85.6066 51.5458 86.083 51.6195 86.4492 51.8908L92.6533 56.486C93.5758 57.1692 94.881 56.4978 94.8621 55.3498L94.7345 47.6288C94.7269 47.1729 94.9441 46.7425 95.3154 46.4779L101.601 41.9956C102.536 41.3291 102.301 39.88 101.204 39.5432L93.8234 37.2787C93.3876 37.145 93.0456 36.8053 92.9087 36.3705L90.5896 29.0051C90.2448 27.9101 88.7943 27.6859 88.135 28.6256Z" fill="url(#paint8_linear_6209_1989)"/>
<path d="M79.0269 43.4997C79.2936 43.8541 79.368 44.3178 79.2272 44.7383L76.8398 51.8689C76.4851 52.929 77.4989 53.9352 78.5573 53.5722L85.6668 51.1314C86.0863 50.9871 86.5498 51.0586 86.9062 51.3229L92.9474 55.7968C93.8454 56.4622 95.1171 55.8093 95.0974 54.6912L95.0052 49.0279L94.9746 47.1725C94.9659 46.7288 95.1781 46.3095 95.5394 46.0523L101.66 41.6879C102.571 41.0382 102.342 39.628 101.272 39.2998L94.0862 37.0949C93.6628 36.9648 93.3292 36.6339 93.1954 36.2103L90.9372 29.0383C90.6021 27.9726 89.19 27.7543 88.5476 28.6688L84.2304 34.8243C83.9763 35.1879 83.5585 35.4028 83.1141 35.3987L75.5977 35.3306C75.4687 35.3291 75.347 35.3452 75.2327 35.3753C74.3501 35.6095 73.9136 36.6991 74.5087 37.4905L79.0269 43.4997Z" fill="url(#paint9_linear_6209_1989)"/>
<path d="M55.3389 1.55225L62.2065 15.4717C62.612 16.2935 63.3956 16.8632 64.3025 16.9949L79.6589 19.227C81.9422 19.5589 82.8539 22.3656 81.2017 23.9766L70.0897 34.8114C69.4337 35.4512 69.1343 36.3729 69.2891 37.2762L71.9124 52.5751C72.3024 54.8499 69.9156 56.5845 67.8734 55.5105L54.1382 48.2874C53.3272 47.8609 52.3585 47.8609 51.5475 48.2874L37.8123 55.5105C35.7701 56.5845 33.3831 54.8499 33.7732 52.5751L36.3964 37.2762C36.5512 36.3729 36.252 35.4512 35.5958 34.8114L24.4838 23.9766C22.8316 22.3656 23.7434 19.5589 26.0266 19.227L41.3829 16.9949C42.2895 16.863 43.0734 16.2935 43.4789 15.4717L50.3465 1.55225C51.3676 -0.517418 54.3178 -0.517418 55.3389 1.55225Z" fill="url(#paint10_linear_6209_1989)"/>
<path d="M54.3343 1.50299L60.9841 14.9813C61.3767 15.7771 62.1358 16.3286 63.0137 16.4563L77.8834 18.6177C80.0943 18.939 80.977 21.6569 79.3772 23.2168L68.6174 33.7082C67.9821 34.3277 67.6923 35.2202 67.8422 36.0948L70.3823 50.9089C70.76 53.1115 68.4487 54.7912 66.4714 53.7513L53.1715 46.757C52.3862 46.3442 51.4481 46.3442 50.6628 46.757L37.3631 53.7513C35.3856 54.7912 33.0744 53.1115 33.452 50.9089L35.992 36.0948C36.142 35.2201 35.8522 34.3277 35.2169 33.7082L24.457 23.2168C22.8573 21.6569 23.7401 18.9392 25.9509 18.6177L40.8205 16.4563C41.6985 16.3287 42.4574 15.7771 42.8501 14.9813L49.5 1.50299C50.4887 -0.500997 53.3456 -0.500997 54.3343 1.50299Z" fill="url(#paint11_linear_6209_1989)"/>
<path d="M54.1022 1.49162L60.7019 14.868C61.0916 15.6578 61.8447 16.2052 62.716 16.3319L77.4733 18.4769C79.6675 18.7958 80.5435 21.4931 78.9559 23.0413L68.2774 33.4534C67.6469 34.0681 67.3592 34.9539 67.508 35.822L70.0288 50.5241C70.4037 52.7101 68.1099 54.377 66.1474 53.345L52.9481 46.4035C52.1688 45.9936 51.2377 45.9936 50.4584 46.4035L37.259 53.345C35.2965 54.377 33.0027 52.7101 33.3776 50.5241L35.8984 35.822C36.0472 34.9539 35.7595 34.0682 35.1291 33.4534L24.4507 23.0413C22.8629 21.4931 23.7391 18.7958 25.9333 18.4769L40.6906 16.3319C41.5619 16.2052 42.3151 15.6578 42.7047 14.868L49.3044 1.49162C50.2857 -0.497207 53.1209 -0.497207 54.1022 1.49162Z" fill="url(#paint12_linear_6209_1989)"/>
<path d="M54.531 5.97912L60.1567 17.3817C60.4888 18.055 61.131 18.5216 61.8736 18.6296L74.4533 20.4581C76.3236 20.73 77.0705 23.0293 75.7171 24.3489L66.6144 33.2246C66.0769 33.7487 65.8316 34.5037 65.9585 35.2436L68.1074 47.7762C68.4269 49.6397 66.4717 51.0606 64.7988 50.1808L53.5472 44.2637C52.8829 43.9143 52.0891 43.9143 51.4249 44.2637L40.1734 50.1808C38.5004 51.0606 36.5451 49.6395 36.8648 47.7762L39.0137 35.2436C39.1406 34.5035 38.8953 33.7487 38.3579 33.2246L29.2551 24.3489C27.9017 23.0293 28.6485 20.73 30.5189 20.4581L43.0986 18.6296C43.8412 18.5216 44.4834 18.055 44.8155 17.3817L50.4412 5.97912C51.2777 4.28365 53.6946 4.28365 54.531 5.97912Z" fill="url(#paint13_linear_6209_1989)"/>
<path d="M65.6138 32.4755C65.0907 32.985 64.8531 33.7208 64.9764 34.4406L67.069 46.6453C67.3796 48.4597 65.4768 49.8422 63.8456 48.9853L52.8896 43.2245C52.2431 42.8841 51.471 42.8841 50.8245 43.2245L39.8684 48.9853C38.2396 49.8422 36.3344 48.4597 36.6474 46.6453L38.2214 37.4523L38.7377 34.4404C38.8633 33.7206 38.6234 32.9848 38.1003 32.4753L29.2368 23.833C27.9186 22.5465 28.6452 20.3093 30.4681 20.0443L42.7171 18.2642C43.4389 18.1591 44.0649 17.7043 44.3893 17.0486L49.8673 5.94538C50.6805 4.29555 53.0335 4.29555 53.849 5.94538L59.327 17.0486C59.6491 17.7045 60.275 18.1592 60.9992 18.2642L73.2481 20.0443C73.4582 20.074 73.6525 20.1312 73.8306 20.2089C75.2081 20.8122 75.6444 22.6951 74.4771 23.833L65.6138 32.4755Z" fill="url(#paint14_linear_6209_1989)"/>
<defs>
<linearGradient id="paint0_linear_6209_1989" x1="7.98961" y1="27.3975" x2="27.0563" y2="54.4707" gradientUnits="userSpaceOnUse">
<stop stop-color="#F8A45B"/>
<stop offset="0.2171" stop-color="#C97F40"/>
<stop offset="0.4733" stop-color="#985825"/>
<stop offset="0.6987" stop-color="#743C11"/>
<stop offset="0.8819" stop-color="#5E2B04"/>
<stop offset="1" stop-color="#562500"/>
</linearGradient>
<linearGradient id="paint1_linear_6209_1989" x1="14.8565" y1="40.021" x2="43.693" y2="70.279" gradientUnits="userSpaceOnUse">
<stop stop-color="#F8A45B"/>
<stop offset="0.3936" stop-color="#CC7937"/>
<stop offset="0.7917" stop-color="#A55318"/>
<stop offset="1" stop-color="#96440C"/>
</linearGradient>
<linearGradient id="paint2_linear_6209_1989" x1="12.9906" y1="33.6357" x2="28.2172" y2="57.9493" gradientUnits="userSpaceOnUse">
<stop stop-color="#F8A45B"/>
<stop offset="0.3936" stop-color="#CC7937"/>
<stop offset="0.7917" stop-color="#A55318"/>
<stop offset="1" stop-color="#96440C"/>
</linearGradient>
<linearGradient id="paint3_linear_6209_1989" x1="8.58278" y1="31.4581" x2="36.1194" y2="63.9977" gradientUnits="userSpaceOnUse">
<stop stop-color="#F8A45B"/>
<stop offset="0.2171" stop-color="#C97F40"/>
<stop offset="0.4733" stop-color="#985825"/>
<stop offset="0.6987" stop-color="#743C11"/>
<stop offset="0.8819" stop-color="#5E2B04"/>
<stop offset="1" stop-color="#562500"/>
</linearGradient>
<linearGradient id="paint4_linear_6209_1989" x1="14.7636" y1="36.8275" x2="23.3954" y2="50.1736" gradientUnits="userSpaceOnUse">
<stop offset="5.4e-07" stop-color="#FBE774"/>
<stop offset="0.1675" stop-color="#FADA6F"/>
<stop offset="0.7142" stop-color="#F9B361"/>
<stop offset="1" stop-color="#F8A45B"/>
</linearGradient>
<linearGradient id="paint5_linear_6209_1989" x1="97.2981" y1="27.208" x2="78.2314" y2="54.2813" gradientUnits="userSpaceOnUse">
<stop stop-color="#F8A45B"/>
<stop offset="0.2171" stop-color="#C97F40"/>
<stop offset="0.4733" stop-color="#985825"/>
<stop offset="0.6987" stop-color="#743C11"/>
<stop offset="0.8819" stop-color="#5E2B04"/>
<stop offset="1" stop-color="#562500"/>
</linearGradient>
<linearGradient id="paint6_linear_6209_1989" x1="90.432" y1="39.8315" x2="61.5955" y2="70.0895" gradientUnits="userSpaceOnUse">
<stop stop-color="#F8A45B"/>
<stop offset="0.3936" stop-color="#CC7937"/>
<stop offset="0.7917" stop-color="#A55318"/>
<stop offset="1" stop-color="#96440C"/>
</linearGradient>
<linearGradient id="paint7_linear_6209_1989" x1="92.2974" y1="33.4462" x2="77.0709" y2="57.7597" gradientUnits="userSpaceOnUse">
<stop stop-color="#F8A45B"/>
<stop offset="0.3936" stop-color="#CC7937"/>
<stop offset="0.7917" stop-color="#A55318"/>
<stop offset="1" stop-color="#96440C"/>
</linearGradient>
<linearGradient id="paint8_linear_6209_1989" x1="96.7056" y1="31.2681" x2="69.1689" y2="63.8076" gradientUnits="userSpaceOnUse">
<stop stop-color="#F8A45B"/>
<stop offset="0.2171" stop-color="#C97F40"/>
<stop offset="0.4733" stop-color="#985825"/>
<stop offset="0.6987" stop-color="#743C11"/>
<stop offset="0.8819" stop-color="#5E2B04"/>
<stop offset="1" stop-color="#562500"/>
</linearGradient>
<linearGradient id="paint9_linear_6209_1989" x1="88.2307" y1="-17.187" x2="88.2307" y2="52.9345" gradientUnits="userSpaceOnUse">
<stop stop-color="#F8A45B"/>
<stop offset="0.2171" stop-color="#C97F40"/>
<stop offset="0.4733" stop-color="#985825"/>
<stop offset="0.6987" stop-color="#743C11"/>
<stop offset="0.8819" stop-color="#5E2B04"/>
<stop offset="1" stop-color="#562500"/>
</linearGradient>
<linearGradient id="paint10_linear_6209_1989" x1="39.9753" y1="1.36739" x2="64.1962" y2="50.2219" gradientUnits="userSpaceOnUse">
<stop stop-color="#F8A45B"/>
<stop offset="0.2171" stop-color="#C97F40"/>
<stop offset="0.4733" stop-color="#985825"/>
<stop offset="0.6987" stop-color="#743C11"/>
<stop offset="0.8819" stop-color="#5E2B04"/>
<stop offset="1" stop-color="#562500"/>
</linearGradient>
<linearGradient id="paint11_linear_6209_1989" x1="47.9764" y1="23.6375" x2="87.2967" y2="80.1313" gradientUnits="userSpaceOnUse">
<stop stop-color="#F8A45B"/>
<stop offset="0.3936" stop-color="#CC7937"/>
<stop offset="0.7917" stop-color="#A55318"/>
<stop offset="1" stop-color="#96440C"/>
</linearGradient>
<linearGradient id="paint12_linear_6209_1989" x1="46.5446" y1="12.7768" x2="65.2098" y2="56.1745" gradientUnits="userSpaceOnUse">
<stop stop-color="#F8A45B"/>
<stop offset="0.3936" stop-color="#CC7937"/>
<stop offset="0.7917" stop-color="#A55318"/>
<stop offset="1" stop-color="#96440C"/>
</linearGradient>
<linearGradient id="paint13_linear_6209_1989" x1="39.9187" y1="8.12407" x2="76.5495" y2="68.0042" gradientUnits="userSpaceOnUse">
<stop stop-color="#F8A45B"/>
<stop offset="0.2171" stop-color="#C97F40"/>
<stop offset="0.4733" stop-color="#985825"/>
<stop offset="0.6987" stop-color="#743C11"/>
<stop offset="0.8819" stop-color="#5E2B04"/>
<stop offset="1" stop-color="#562500"/>
</linearGradient>
<linearGradient id="paint14_linear_6209_1989" x1="51.8573" y1="-17.1876" x2="51.8573" y2="52.9341" gradientUnits="userSpaceOnUse">
<stop stop-color="#F8A45B"/>
<stop offset="0.2171" stop-color="#C97F40"/>
<stop offset="0.4733" stop-color="#985825"/>
<stop offset="0.6987" stop-color="#743C11"/>
<stop offset="0.8819" stop-color="#5E2B04"/>
<stop offset="1" stop-color="#562500"/>
</linearGradient>
</defs>
</svg>
