<svg width="63" height="63" viewBox="0 0 63 63" fill="none" xmlns="http://www.w3.org/2000/svg">
<g filter="url(#filter0_d_6203_347)">
<rect x="6.09033" y="1.99902" width="50.8863" height="50.8863" rx="12" fill="url(#paint0_radial_6203_347)"/>
</g>
<g opacity="0.8" filter="url(#filter1_d_6203_347)">
<path d="M38.1411 19.2861C38.1411 19.9697 38.0226 20.5941 37.7856 21.1592C37.5578 21.7152 37.2661 22.2393 36.9106 22.7314C36.5643 23.2145 36.1815 23.6748 35.7622 24.1123C35.3521 24.5498 34.9647 24.9873 34.6001 25.4248C34.2355 25.8623 33.9256 26.3135 33.6704 26.7783C33.4152 27.234 33.2694 27.7308 33.2329 28.2686L33.1509 29.5811C32.9777 29.7087 32.7726 29.818 32.5356 29.9092C32.2987 29.9912 32.0526 30.0687 31.7974 30.1416L31.3599 29.7588L31.2505 28.2686C31.2231 27.749 31.2869 27.2386 31.4419 26.7373C31.5968 26.236 31.7974 25.7484 32.0435 25.2744C32.2896 24.8005 32.5584 24.3356 32.8501 23.8799C33.1418 23.4242 33.4152 22.973 33.6704 22.5264C33.9256 22.0798 34.1398 21.6423 34.313 21.2139C34.4862 20.7764 34.5728 20.3389 34.5728 19.9014C34.5728 18.7712 34.3859 17.9372 34.0122 17.3994C33.6476 16.8617 33.1463 16.5928 32.5083 16.5928C32.2804 16.5928 32.0617 16.652 31.8521 16.7705C31.6424 16.889 31.4556 17.0531 31.2915 17.2627C31.1366 17.4723 31.009 17.7275 30.9087 18.0283C30.8175 18.32 30.772 18.6436 30.772 18.999C30.772 19.1266 30.7856 19.277 30.813 19.4502C30.8494 19.6143 30.8905 19.7601 30.936 19.8877C30.7902 19.9606 30.576 20.0426 30.2935 20.1338C30.0109 20.2249 29.7101 20.3115 29.3911 20.3936C29.0812 20.4665 28.7713 20.5348 28.4614 20.5986C28.1515 20.6624 27.8963 20.7035 27.6958 20.7217L27.2173 20.2021C27.1991 20.1292 27.1899 20.0199 27.1899 19.874V19.5459C27.1899 18.9079 27.3586 18.3109 27.6958 17.7549C28.0422 17.1989 28.5024 16.7158 29.0767 16.3057C29.66 15.8955 30.3299 15.5719 31.0864 15.335C31.8429 15.098 32.6405 14.9795 33.479 14.9795C34.2264 14.9795 34.8918 15.0843 35.4751 15.2939C36.0584 15.5036 36.5461 15.7998 36.938 16.1826C37.3299 16.5563 37.6261 17.0075 37.8267 17.5361C38.0363 18.0648 38.1411 18.6481 38.1411 19.2861ZM34.6138 33.4229C34.6138 33.7874 34.5454 34.1156 34.4087 34.4072C34.2811 34.6989 34.1034 34.945 33.8755 35.1455C33.6567 35.346 33.3924 35.4964 33.0825 35.5967C32.7817 35.7061 32.4582 35.7607 32.1118 35.7607C31.8475 35.7607 31.5923 35.7243 31.3462 35.6514C31.1092 35.5876 30.8996 35.4782 30.7173 35.3232C30.535 35.1774 30.3892 34.9906 30.2798 34.7627C30.1795 34.5257 30.1294 34.2432 30.1294 33.915C30.1294 33.5596 30.1978 33.236 30.3345 32.9443C30.4712 32.6527 30.6535 32.4066 30.8813 32.2061C31.1183 32.0055 31.3872 31.8506 31.688 31.7412C31.9979 31.6318 32.3169 31.5771 32.645 31.5771C32.9002 31.5771 33.1463 31.6136 33.3833 31.6865C33.6203 31.7594 33.8299 31.8734 34.0122 32.0283C34.1945 32.1742 34.3403 32.3656 34.4497 32.6025C34.5591 32.8304 34.6138 33.1038 34.6138 33.4229Z" fill="white"/>
</g>
<defs>
<filter id="filter0_d_6203_347" x="0.590332" y="0.499023" width="61.8862" height="61.8867" filterUnits="userSpaceOnUse" color-interpolation-filters="sRGB">
<feFlood flood-opacity="0" result="BackgroundImageFix"/>
<feColorMatrix in="SourceAlpha" type="matrix" values="0 0 0 0 0 0 0 0 0 0 0 0 0 0 0 0 0 0 127 0" result="hardAlpha"/>
<feOffset dy="4"/>
<feGaussianBlur stdDeviation="2.75"/>
<feComposite in2="hardAlpha" operator="out"/>
<feColorMatrix type="matrix" values="0 0 0 0 0 0 0 0 0 0 0 0 0 0 0 0 0 0 0.37 0"/>
<feBlend mode="normal" in2="BackgroundImageFix" result="effect1_dropShadow_6203_347"/>
<feBlend mode="normal" in="SourceGraphic" in2="effect1_dropShadow_6203_347" result="shape"/>
</filter>
<filter id="filter1_d_6203_347" x="26.1899" y="14.9795" width="12.9512" height="23.7812" filterUnits="userSpaceOnUse" color-interpolation-filters="sRGB">
<feFlood flood-opacity="0" result="BackgroundImageFix"/>
<feColorMatrix in="SourceAlpha" type="matrix" values="0 0 0 0 0 0 0 0 0 0 0 0 0 0 0 0 0 0 127 0" result="hardAlpha"/>
<feOffset dy="2"/>
<feGaussianBlur stdDeviation="0.5"/>
<feComposite in2="hardAlpha" operator="out"/>
<feColorMatrix type="matrix" values="0 0 0 0 0 0 0 0 0 0 0 0 0 0 0 0 0 0 0.25 0"/>
<feBlend mode="normal" in2="BackgroundImageFix" result="effect1_dropShadow_6203_347"/>
<feBlend mode="normal" in="SourceGraphic" in2="effect1_dropShadow_6203_347" result="shape"/>
</filter>
<radialGradient id="paint0_radial_6203_347" cx="0" cy="0" r="1" gradientUnits="userSpaceOnUse" gradientTransform="translate(31.5335 27.4422) rotate(90) scale(25.4432)">
<stop stop-color="#D8922A"/>
<stop offset="1" stop-color="#B96211"/>
</radialGradient>
</defs>
</svg>
