<svg width="68" height="97" viewBox="0 0 68 97" fill="none" xmlns="http://www.w3.org/2000/svg">
<g clip-path="url(#clip0_8232_242)">
<path d="M61.9882 35.7227H5.08032V87.9629H61.9882V35.7227Z" fill="url(#paint0_radial_8232_242)"/>
<g style="mix-blend-mode:multiply" opacity="0.2">
<path d="M4.85626 35.1504L3.58032 96.0704H64.1307L62.2411 35.1504H4.85626ZM55.674 90.17L11.4733 90.0557L8.65441 40.5266L57.5909 39.1539L55.674 90.17Z" fill="#892334"/>
</g>
<path d="M0.000244141 30.5596L2.56546 93.9927H65.3868L67.097 30.5596H0.000244141ZM59.511 87.9626H7.64562L5.0804 36.5897L61.2212 35.7223L59.511 87.9626Z" fill="url(#paint1_radial_8232_242)"/>
<path d="M0.000244141 30.5593L4.93316 29.5453L63.4543 28.9736L67.0969 30.5593H0.000244141Z" fill="url(#paint2_radial_8232_242)"/>
<path d="M7.64551 87.9628L9.92257 86.1377H57.3372L59.5108 87.9628H7.64551Z" fill="url(#paint3_radial_8232_242)"/>
<path d="M9.92235 86.1373L7.16988 38.677L59.8175 37.2371L57.337 86.1373L59.5106 87.9624L61.2207 35.7217L5.08008 36.5891L7.6453 87.9624L9.92235 86.1373Z" fill="#444671"/>
<path style="mix-blend-mode:screen" opacity="0.3" d="M29.2713 36.216L61.221 35.7223L60.3259 63.064C62.2525 63.6422 64.2071 64.1193 66.182 64.4935L67.0968 30.5596H27.2847C27.8041 32.4935 28.4682 34.3845 29.2713 36.216Z" fill="url(#paint4_linear_8232_242)"/>
<path style="mix-blend-mode:screen" opacity="0.4" d="M2.56547 93.9923H61.4962C54.0215 92.6797 46.6843 90.6609 39.5802 87.9622H7.64562L6.46229 64.2653C4.49956 61.7898 2.69153 59.192 1.04883 56.4873L2.56547 93.9923Z" fill="url(#paint5_linear_8232_242)"/>
<path d="M51.8801 30.5734L64.3283 31.2041L65.8785 32.291L66.8362 40.2392L67.097 30.5596L51.8801 30.5734Z" fill="#CFF6FF"/>
<path d="M15.3916 30.5596L30.3177 31.2899L39.113 30.9248L46.3008 30.6038L15.3916 30.5596Z" fill="#CFF6FF"/>
<path d="M12.5159 87.9629L28.9649 89.4124L47.6542 87.9629H12.5159Z" fill="#CCCCCC"/>
</g>
<path d="M11.4194 16.4036L14.8333 21.2711C15.035 21.5585 15.3649 21.7282 15.7159 21.725L21.6597 21.6713C22.5435 21.6634 23.0528 22.6725 22.5216 23.3791L18.9487 28.131C18.7377 28.4116 18.6783 28.778 18.7898 29.1109L20.6777 34.749C20.9583 35.5873 20.1562 36.3837 19.3203 36.0966L13.6982 34.166C13.3663 34.052 12.9995 34.1088 12.7174 34.3176L7.94027 37.8559C7.22998 38.3819 6.22498 37.8649 6.23952 36.981L6.33779 31.0359C6.34357 30.6848 6.17639 30.3535 5.89055 30.1497L1.05026 26.6983C0.330614 26.1852 0.511526 25.0693 1.35652 24.81L7.03932 23.0663C7.37485 22.9634 7.63829 22.7018 7.74363 22.367L9.5293 16.6957C9.79493 15.8525 10.9119 15.6798 11.4194 16.4036Z" fill="url(#paint6_linear_8232_242)"/>
<path d="M11.0363 16.4438L14.342 21.157C14.5372 21.4353 14.8568 21.5997 15.1966 21.5967L20.9521 21.5447C21.8078 21.5369 22.301 22.5141 21.7866 23.1982L18.327 27.7996C18.1227 28.0713 18.0651 28.426 18.173 28.7484L20.001 34.2078C20.2728 35.0195 19.4962 35.7906 18.6867 35.5126L13.2429 33.6432C12.9215 33.5328 12.5663 33.5877 12.2932 33.79L7.66749 37.216C6.97971 37.7254 6.00657 37.2248 6.02071 36.3689L6.11589 30.6121C6.12157 30.2722 5.95958 29.9513 5.68289 29.754L0.996024 26.412C0.299178 25.9152 0.474412 24.8347 1.29253 24.5836L6.79522 22.8952C7.12009 22.7955 7.37517 22.5422 7.47723 22.218L9.20635 16.7265C9.46333 15.9103 10.5448 15.7431 11.0363 16.4438Z" fill="url(#paint7_linear_8232_242)"/>
<path d="M10.9481 16.4533L14.2288 21.1308C14.4225 21.407 14.7397 21.5702 15.0769 21.5672L20.7888 21.5156C21.6381 21.5079 22.1276 22.4778 21.617 23.1567L18.1836 27.7233C17.9808 27.9929 17.9237 28.345 18.0308 28.6649L19.845 34.0831C20.1147 34.8887 19.3439 35.654 18.5406 35.3781L13.1379 33.5227C12.8189 33.4132 12.4664 33.4677 12.1954 33.6685L7.60463 37.0687C6.92202 37.5742 5.95626 37.0775 5.9703 36.2279L6.06469 30.5147C6.07026 30.1774 5.90956 29.8589 5.63487 29.6631L0.983453 26.3464C0.291884 25.8533 0.465815 24.7809 1.27776 24.5318L6.73883 22.8561C7.06132 22.7572 7.31441 22.5058 7.41566 22.1841L9.13175 16.734C9.38693 15.9237 10.4602 15.7577 10.9481 16.4533Z" fill="url(#paint8_linear_8232_242)"/>
<path d="M11.3734 18.1271L14.17 22.1145C14.3351 22.3499 14.6055 22.4889 14.8929 22.4864L19.7621 22.4423C20.486 22.4358 20.9032 23.2625 20.4681 23.8412L17.5412 27.734C17.3684 27.9638 17.3197 28.264 17.4111 28.5367L18.9575 33.1554C19.1875 33.8421 18.5304 34.4944 17.8456 34.2593L13.2401 32.6777C12.9682 32.5843 12.6677 32.6308 12.4367 32.8019L8.52337 35.7004C7.94152 36.1314 7.11822 35.7079 7.13017 34.9837L7.21061 30.1136C7.21539 29.826 7.07839 29.5546 6.84421 29.3876L2.8792 26.5604C2.28968 26.14 2.43793 25.2259 3.1301 25.0135L7.78529 23.5851C8.06019 23.5007 8.27593 23.2865 8.36226 23.0122L9.82506 18.3663C10.0426 17.6757 10.9576 17.5342 11.3734 18.1271Z" fill="url(#paint9_linear_8232_242)"/>
<path d="M17.1185 27.5099C16.9502 27.7333 16.9033 28.0259 16.9921 28.2911L18.498 32.7888C18.7217 33.4575 18.0822 34.0922 17.4147 33.8633L12.9302 32.3236C12.6656 32.2326 12.3733 32.2777 12.1484 32.4445L8.33784 35.2665C7.77133 35.6862 6.96925 35.2744 6.98169 34.5692L7.03983 30.9969L7.05915 29.8266C7.06462 29.5468 6.93081 29.2822 6.70291 29.12L2.84213 26.3671C2.26795 25.9572 2.41211 25.0678 3.08665 24.8607L7.61948 23.47C7.88661 23.3879 8.097 23.1792 8.18143 22.912L9.60577 18.3881C9.81715 17.716 10.7079 17.5782 11.1131 18.1551L13.8362 22.0378C13.9965 22.2672 14.2601 22.4027 14.5403 22.4001L19.2815 22.3571C19.3628 22.3561 19.4397 22.3663 19.5117 22.3853C20.0684 22.5331 20.3437 23.2203 19.9684 23.7195L17.1185 27.5099Z" fill="url(#paint10_linear_8232_242)"/>
<g opacity="0.6">
<path d="M17.1181 27.5093C16.9498 27.7328 16.9029 28.0253 16.9918 28.2905L18.4977 32.7883C18.7214 33.4569 18.0819 34.0917 17.4143 33.8627L12.9299 32.3231C12.6652 32.232 12.3729 32.2772 12.1481 32.444L8.3375 35.266C7.77098 35.6857 6.9689 35.2738 6.98134 34.5686L7.03949 30.9964C13.2743 28.913 17.4981 24.7535 19.5113 22.3848C20.0681 22.5326 20.3434 23.2198 19.968 23.7189L17.1181 27.5093Z" fill="#F8A45B"/>
</g>
<path d="M56.299 16.4036L52.885 21.2711C52.6835 21.5585 52.3534 21.7282 52.0025 21.725L46.0586 21.6713C45.1749 21.6634 44.6656 22.6725 45.1968 23.3791L48.7696 28.131C48.9806 28.4116 49.0401 28.778 48.9285 29.1109L47.0407 34.749C46.7601 35.5873 47.5621 36.3837 48.3981 36.0966L54.0201 34.166C54.3521 34.052 54.7189 34.1088 55.0009 34.3176L59.7781 37.8559C60.4884 38.3819 61.4934 37.8649 61.4787 36.981L61.3805 31.0359C61.3747 30.6848 61.542 30.3535 61.8277 30.1497L66.668 26.6983C67.3877 26.1852 67.2067 25.0693 66.3617 24.81L60.679 23.0663C60.3434 22.9634 60.08 22.7018 59.9746 22.367L58.189 16.6957C57.9234 15.8525 56.8066 15.6798 56.299 16.4036Z" fill="url(#paint11_linear_8232_242)"/>
<path d="M56.6827 16.4438L53.377 21.157C53.1818 21.4353 52.8622 21.5997 52.5224 21.5967L46.7669 21.5447C45.9112 21.5369 45.418 22.5141 45.9324 23.1982L49.392 27.7996C49.5963 28.0713 49.6538 28.426 49.5459 28.7484L47.7179 34.2078C47.4461 35.0195 48.2228 35.7906 49.0322 35.5126L54.476 33.6432C54.7974 33.5328 55.1526 33.5877 55.4257 33.79L60.0514 37.216C60.7392 37.7254 61.7123 37.2248 61.6982 36.3689L61.603 30.6121C61.5974 30.2722 61.7593 29.9513 62.036 29.754L66.7229 26.412C67.4197 25.9152 67.2445 24.8347 66.4264 24.5836L60.9237 22.8952C60.5988 22.7955 60.3437 22.5422 60.2417 22.218L58.5126 16.7265C58.2556 15.9103 57.1741 15.7431 56.6827 16.4438Z" fill="url(#paint12_linear_8232_242)"/>
<path d="M56.771 16.4533L53.4902 21.1308C53.2966 21.407 52.9794 21.5702 52.6421 21.5672L46.9302 21.5156C46.0809 21.5079 45.5914 22.4778 46.102 23.1567L49.5355 27.7233C49.7383 27.9929 49.7954 28.345 49.6883 28.6649L47.8741 34.0831C47.6044 34.8887 48.3752 35.654 49.1785 35.3781L54.5812 33.5227C54.9002 33.4132 55.2527 33.4677 55.5237 33.6685L60.1145 37.0687C60.7971 37.5742 61.7629 37.0775 61.7488 36.2279L61.6544 30.5147C61.6489 30.1774 61.8096 29.8589 62.0843 29.6631L66.7357 26.3464C67.4272 25.8533 67.2533 24.7809 66.4414 24.5318L60.9803 22.8561C60.6578 22.7572 60.4047 22.5058 60.3035 22.1841L58.5874 16.734C58.332 15.9237 57.2587 15.7577 56.771 16.4533Z" fill="url(#paint13_linear_8232_242)"/>
<path d="M56.3458 18.1271L53.5491 22.1145C53.384 22.3499 53.1136 22.4889 52.8262 22.4864L47.957 22.4423C47.2331 22.4358 46.8158 23.2625 47.251 23.8412L50.1779 27.734C50.3507 27.9638 50.3994 28.264 50.3081 28.5367L48.7617 33.1554C48.5318 33.8421 49.1888 34.4944 49.8736 34.2593L54.4791 32.6777C54.751 32.5843 55.0515 32.6308 55.2826 32.8019L59.196 35.7004C59.7778 36.1314 60.6011 35.7079 60.5891 34.9837L60.5086 30.1136C60.5038 29.826 60.6408 29.5546 60.875 29.3876L64.84 26.5604C65.4295 26.14 65.2813 25.2259 64.5891 25.0135L59.9339 23.5851C59.6591 23.5007 59.4433 23.2865 59.357 23.0122L57.8942 18.3663C57.6764 17.6757 56.7615 17.5342 56.3458 18.1271Z" fill="url(#paint14_linear_8232_242)"/>
<path d="M50.6004 27.5099C50.7687 27.7333 50.8156 28.0259 50.7267 28.2911L49.2208 32.7888C48.9971 33.4575 49.6366 34.0922 50.3042 33.8633L54.7887 32.3236C55.0533 32.2326 55.3456 32.2777 55.5704 32.4445L59.381 35.2665C59.9474 35.6862 60.7496 35.2744 60.7372 34.5692L60.679 30.9969L60.6597 29.8266C60.6543 29.5468 60.7881 29.2822 61.016 29.12L64.8768 26.3671C65.451 25.9572 65.3068 25.0678 64.6323 24.8607L60.0995 23.47C59.8323 23.3879 59.622 23.1792 59.5375 22.912L58.1132 18.3881C57.9018 17.716 57.0111 17.5782 56.6059 18.1551L53.8827 22.0378C53.7224 22.2672 53.4589 22.4027 53.1786 22.4001L48.4375 22.3571C48.3562 22.3561 48.2794 22.3663 48.2074 22.3853C47.6506 22.5331 47.3753 23.2203 47.7507 23.7195L50.6004 27.5099Z" fill="url(#paint15_linear_8232_242)"/>
<g opacity="0.6">
<path d="M50.601 27.5093C50.7692 27.7328 50.8161 28.0253 50.7273 28.2905L49.2214 32.7883C48.9977 33.4569 49.6372 34.0917 50.3048 33.8627L54.7892 32.3231C55.0539 32.232 55.3462 32.2772 55.571 32.444L59.3816 35.266C59.948 35.6857 60.7502 35.2738 60.7378 34.5686L60.6796 30.9964C54.4448 28.913 50.2211 24.7535 48.2079 22.3848C47.6511 22.5326 47.3758 23.2198 47.7512 23.7189L50.601 27.5093Z" fill="#F8A45B"/>
</g>
<path d="M35.6584 1.04934L39.9902 9.82926C40.246 10.3476 40.7404 10.707 41.3123 10.79L50.9987 12.198C52.4388 12.4074 53.0139 14.1777 51.9718 15.1939L44.9627 22.0282C44.5489 22.4317 44.36 23.013 44.4577 23.5828L46.1123 33.2329C46.3583 34.6677 44.8528 35.7619 43.5646 35.0844L34.9009 30.5283C34.3893 30.2593 33.7783 30.2593 33.2667 30.5283L24.603 35.0844C23.3149 35.7619 21.8094 34.6676 22.0554 33.2329L23.71 23.5828C23.8077 23.013 23.6188 22.4317 23.2051 22.0282L16.196 15.194C15.1539 14.1778 15.7289 12.4075 17.1691 12.1981L26.8555 10.7901C27.4274 10.707 27.9218 10.3477 28.1776 9.82936L32.5094 1.04943C33.1534 -0.256045 35.0143 -0.256045 35.6584 1.04934Z" fill="url(#paint16_linear_8232_242)"/>
<path d="M35.0246 1.01842L39.2191 9.52008C39.4668 10.022 39.9455 10.3699 40.4993 10.4505L49.8786 11.8138C51.2732 12.0165 51.8299 13.7308 50.8209 14.7148L44.0339 21.3325C43.6332 21.7232 43.4504 22.2862 43.545 22.8378L45.1472 32.182C45.3854 33.5714 43.9276 34.6309 42.6803 33.9749L34.2911 29.5632C33.7958 29.3028 33.2041 29.3028 32.7087 29.5632L24.3197 33.9749C23.0724 34.6309 21.6146 33.5714 21.8528 32.182L23.455 22.8378C23.5496 22.2861 23.3668 21.7232 22.966 21.3325L16.1791 14.7148C15.17 13.7308 15.7269 12.0166 17.1214 11.8138L26.5007 10.4505C27.0545 10.37 27.5331 10.022 27.7809 9.52008L31.9754 1.01842C32.5989 -0.245725 34.4009 -0.245725 35.0246 1.01842Z" fill="url(#paint17_linear_8232_242)"/>
<path d="M34.8784 1.01125L39.0413 9.44867C39.2871 9.94684 39.7622 10.2921 40.3117 10.372L49.6201 11.725C51.0042 11.9262 51.5568 13.6275 50.5553 14.6041L43.8198 21.1717C43.4221 21.5594 43.2406 22.1182 43.3345 22.6657L44.9245 31.9393C45.161 33.3182 43.7141 34.3696 42.4763 33.7187L34.1506 29.3402C33.659 29.0817 33.0717 29.0817 32.5801 29.3402L24.2544 33.7187C23.0166 34.3697 21.5697 33.3182 21.8062 31.9393L23.3962 22.6657C23.4901 22.1182 23.3086 21.5595 22.9109 21.1717L16.1752 14.6041C15.1737 13.6275 15.7264 11.9262 17.1104 11.725L26.4188 10.372C26.9684 10.2921 27.4436 9.94684 27.6893 9.44867L31.8521 1.01125C32.4711 -0.243335 34.2595 -0.243335 34.8784 1.01125Z" fill="url(#paint18_linear_8232_242)"/>
<path d="M35.149 3.84163L38.6976 11.034C38.9071 11.4587 39.3121 11.753 39.7805 11.8211L47.7154 12.9745C48.8952 13.146 49.3662 14.5963 48.5126 15.4287L42.7708 21.0272C42.4318 21.3578 42.2772 21.834 42.3571 22.3007L43.7126 30.2059C43.9141 31.3813 42.6808 32.2777 41.6255 31.7227L34.5284 27.9904C34.1094 27.77 33.6088 27.77 33.1898 27.9904L26.0927 31.7227C25.0374 32.2777 23.8041 31.3813 24.0057 30.2059L25.3611 22.3007C25.4412 21.834 25.2865 21.3578 24.9474 21.0272L19.2057 15.4287C18.352 14.5963 18.8231 13.146 20.0029 12.9745L27.9377 11.8211C28.4063 11.753 28.8112 11.4587 29.0208 11.034L32.5693 3.84163C33.097 2.77219 34.6214 2.77219 35.149 3.84163Z" fill="url(#paint19_linear_8232_242)"/>
<path d="M42.1399 20.5548C41.8099 20.8762 41.6601 21.3403 41.7379 21.7944L43.0578 29.4927C43.2537 30.6372 42.0535 31.5092 41.0246 30.9687L34.1139 27.335C33.7061 27.1203 33.2191 27.1203 32.8113 27.335L25.9006 30.9687C24.8732 31.5092 23.6714 30.6372 23.8689 29.4927L24.8616 23.6942L25.1873 21.7944C25.2666 21.3403 25.1152 20.8762 24.7853 20.5548L19.1945 15.1036C18.363 14.2921 18.8213 12.881 19.9712 12.7138L27.6974 11.591C28.1528 11.5246 28.5476 11.2378 28.7522 10.8242L32.2075 3.82053C32.7205 2.77987 34.2047 2.77987 34.7191 3.82053L38.1745 10.8242C38.3777 11.2378 38.7725 11.5246 39.2293 11.591L46.9555 12.7138C47.088 12.7325 47.2106 12.7686 47.3229 12.8176C48.1918 13.1981 48.467 14.3858 47.7306 15.1036L42.1399 20.5548Z" fill="url(#paint20_linear_8232_242)"/>
<g opacity="0.6">
<path d="M42.1389 20.5547C41.809 20.876 41.6591 21.3402 41.7369 21.7942L43.0568 29.4925C43.2528 30.637 42.0525 31.509 41.0236 30.9685L34.1129 27.3348C33.7051 27.1201 33.2181 27.1201 32.8103 27.3348L25.8996 30.9685C24.8722 31.509 23.6705 30.637 23.8679 29.4925L24.8607 23.694C35.5307 21.8721 43.45 16.1657 47.3218 12.8174C48.1907 13.1979 48.4659 14.3856 47.7295 15.1034L42.1389 20.5547Z" fill="#F8A45B"/>
</g>
<defs>
<radialGradient id="paint0_radial_8232_242" cx="0" cy="0" r="1" gradientUnits="userSpaceOnUse" gradientTransform="translate(42.8549 48.7404) rotate(125.427) scale(30.637 30.496)">
<stop stop-color="#FF9200"/>
<stop offset="0.8369" stop-color="#FFC62D"/>
</radialGradient>
<radialGradient id="paint1_radial_8232_242" cx="0" cy="0" r="1" gradientUnits="userSpaceOnUse" gradientTransform="translate(66.7241 25.8851) scale(55.2619 56.0603)">
<stop offset="0.09168" stop-color="#8EA3AD"/>
<stop offset="0.93594" stop-color="#8F9499"/>
</radialGradient>
<radialGradient id="paint2_radial_8232_242" cx="0" cy="0" r="1" gradientUnits="userSpaceOnUse" gradientTransform="translate(74.6171 28.9736) scale(60.8701 61.7495)">
<stop stop-color="#ABD9D9"/>
<stop offset="1" stop-color="#97BFBF"/>
</radialGradient>
<radialGradient id="paint3_radial_8232_242" cx="0" cy="0" r="1" gradientUnits="userSpaceOnUse" gradientTransform="translate(79.1222 31.5778) scale(61.5123 62.4008)">
<stop stop-color="#444671"/>
<stop offset="1" stop-color="#444671"/>
</radialGradient>
<linearGradient id="paint4_linear_8232_242" x1="74.7428" y1="16.2277" x2="40.8984" y2="52.9772" gradientUnits="userSpaceOnUse">
<stop stop-color="#B5D9FF"/>
<stop offset="1"/>
</linearGradient>
<linearGradient id="paint5_linear_8232_242" x1="9.41718" y1="119.582" x2="37.2782" y2="64.6534" gradientUnits="userSpaceOnUse">
<stop stop-color="#B5D9FF"/>
<stop offset="1"/>
</linearGradient>
<linearGradient id="paint6_linear_8232_242" x1="5.59285" y1="17.2323" x2="17.6195" y2="34.3092" gradientUnits="userSpaceOnUse">
<stop stop-color="#F8A45B"/>
<stop offset="0.2171" stop-color="#C97F40"/>
<stop offset="0.4733" stop-color="#985825"/>
<stop offset="0.6987" stop-color="#743C11"/>
<stop offset="0.8819" stop-color="#5E2B04"/>
<stop offset="1" stop-color="#562500"/>
</linearGradient>
<linearGradient id="paint7_linear_8232_242" x1="9.9241" y1="25.195" x2="28.1132" y2="44.2808" gradientUnits="userSpaceOnUse">
<stop stop-color="#F8A45B"/>
<stop offset="0.3936" stop-color="#CC7937"/>
<stop offset="0.7917" stop-color="#A55318"/>
<stop offset="1" stop-color="#96440C"/>
</linearGradient>
<linearGradient id="paint8_linear_8232_242" x1="8.74729" y1="21.1674" x2="18.3517" y2="36.5036" gradientUnits="userSpaceOnUse">
<stop stop-color="#F8A45B"/>
<stop offset="0.3936" stop-color="#CC7937"/>
<stop offset="0.7917" stop-color="#A55318"/>
<stop offset="1" stop-color="#96440C"/>
</linearGradient>
<linearGradient id="paint9_linear_8232_242" x1="5.96736" y1="19.7939" x2="23.3366" y2="40.3187" gradientUnits="userSpaceOnUse">
<stop stop-color="#F8A45B"/>
<stop offset="0.2171" stop-color="#C97F40"/>
<stop offset="0.4733" stop-color="#985825"/>
<stop offset="0.6987" stop-color="#743C11"/>
<stop offset="0.8819" stop-color="#5E2B04"/>
<stop offset="1" stop-color="#562500"/>
</linearGradient>
<linearGradient id="paint10_linear_8232_242" x1="9.86585" y1="23.1815" x2="15.3105" y2="31.5998" gradientUnits="userSpaceOnUse">
<stop offset="5.4e-07" stop-color="#FBE774"/>
<stop offset="0.1675" stop-color="#FADA6F"/>
<stop offset="0.7142" stop-color="#F9B361"/>
<stop offset="1" stop-color="#F8A45B"/>
</linearGradient>
<linearGradient id="paint11_linear_8232_242" x1="62.1256" y1="17.2323" x2="50.0989" y2="34.3093" gradientUnits="userSpaceOnUse">
<stop stop-color="#F8A45B"/>
<stop offset="0.2171" stop-color="#C97F40"/>
<stop offset="0.4733" stop-color="#985825"/>
<stop offset="0.6987" stop-color="#743C11"/>
<stop offset="0.8819" stop-color="#5E2B04"/>
<stop offset="1" stop-color="#562500"/>
</linearGradient>
<linearGradient id="paint12_linear_8232_242" x1="57.7949" y1="25.195" x2="39.6057" y2="44.2807" gradientUnits="userSpaceOnUse">
<stop stop-color="#F8A45B"/>
<stop offset="0.3936" stop-color="#CC7937"/>
<stop offset="0.7917" stop-color="#A55318"/>
<stop offset="1" stop-color="#96440C"/>
</linearGradient>
<linearGradient id="paint13_linear_8232_242" x1="58.9717" y1="21.1674" x2="49.3673" y2="36.5036" gradientUnits="userSpaceOnUse">
<stop stop-color="#F8A45B"/>
<stop offset="0.3936" stop-color="#CC7937"/>
<stop offset="0.7917" stop-color="#A55318"/>
<stop offset="1" stop-color="#96440C"/>
</linearGradient>
<linearGradient id="paint14_linear_8232_242" x1="61.7517" y1="19.7939" x2="44.3825" y2="40.3187" gradientUnits="userSpaceOnUse">
<stop stop-color="#F8A45B"/>
<stop offset="0.2171" stop-color="#C97F40"/>
<stop offset="0.4733" stop-color="#985825"/>
<stop offset="0.6987" stop-color="#743C11"/>
<stop offset="0.8819" stop-color="#5E2B04"/>
<stop offset="1" stop-color="#562500"/>
</linearGradient>
<linearGradient id="paint15_linear_8232_242" x1="57.853" y1="23.1815" x2="52.4083" y2="31.5998" gradientUnits="userSpaceOnUse">
<stop offset="5.4e-07" stop-color="#FBE774"/>
<stop offset="0.1675" stop-color="#FADA6F"/>
<stop offset="0.7142" stop-color="#F9B361"/>
<stop offset="1" stop-color="#F8A45B"/>
</linearGradient>
<linearGradient id="paint16_linear_8232_242" x1="25.9675" y1="0.9328" x2="41.2453" y2="31.7486" gradientUnits="userSpaceOnUse">
<stop stop-color="#F8A45B"/>
<stop offset="0.2171" stop-color="#C97F40"/>
<stop offset="0.4733" stop-color="#985825"/>
<stop offset="0.6987" stop-color="#743C11"/>
<stop offset="0.8819" stop-color="#5E2B04"/>
<stop offset="1" stop-color="#562500"/>
</linearGradient>
<linearGradient id="paint17_linear_8232_242" x1="31.0143" y1="14.9801" x2="55.8163" y2="50.6146" gradientUnits="userSpaceOnUse">
<stop stop-color="#F8A45B"/>
<stop offset="0.3936" stop-color="#CC7937"/>
<stop offset="0.7917" stop-color="#A55318"/>
<stop offset="1" stop-color="#96440C"/>
</linearGradient>
<linearGradient id="paint18_linear_8232_242" x1="30.1114" y1="8.12957" x2="41.8848" y2="35.5034" gradientUnits="userSpaceOnUse">
<stop stop-color="#F8A45B"/>
<stop offset="0.3936" stop-color="#CC7937"/>
<stop offset="0.7917" stop-color="#A55318"/>
<stop offset="1" stop-color="#96440C"/>
</linearGradient>
<linearGradient id="paint19_linear_8232_242" x1="25.9321" y1="5.19457" x2="49.0376" y2="42.965" gradientUnits="userSpaceOnUse">
<stop stop-color="#F8A45B"/>
<stop offset="0.2171" stop-color="#C97F40"/>
<stop offset="0.4733" stop-color="#985825"/>
<stop offset="0.6987" stop-color="#743C11"/>
<stop offset="0.8819" stop-color="#5E2B04"/>
<stop offset="1" stop-color="#562500"/>
</linearGradient>
<linearGradient id="paint20_linear_8232_242" x1="31.4253" y1="11.6868" x2="38.1689" y2="26.7561" gradientUnits="userSpaceOnUse">
<stop offset="5.4e-07" stop-color="#FBE774"/>
<stop offset="0.1675" stop-color="#FADA6F"/>
<stop offset="0.7142" stop-color="#F9B361"/>
<stop offset="1" stop-color="#F8A45B"/>
</linearGradient>
<clipPath id="clip0_8232_242">
<rect x="0.000244141" y="28.9736" width="67.0967" height="67.0967" fill="white"/>
</clipPath>
</defs>
</svg>
