<svg width="70" height="100" viewBox="0 0 70 100" fill="none" xmlns="http://www.w3.org/2000/svg">
<g clip-path="url(#clip0_8232_205)">
<path d="M64.5829 38.7227H7.67505V90.9629H64.5829V38.7227Z" fill="url(#paint0_radial_8232_205)"/>
<g style="mix-blend-mode:multiply" opacity="0.2">
<path d="M7.45099 38.1504L6.17505 99.0704H66.7254L64.8358 38.1504H7.45099ZM58.2687 93.17L14.0681 93.0557L11.2491 43.5266L60.1856 42.1539L58.2687 93.17Z" fill="#892334"/>
</g>
<path d="M2.59497 33.5596L5.16019 96.9927H67.9816L69.6917 33.5596H2.59497ZM62.1058 90.9626H10.2403L7.67513 39.5897L63.8159 38.7223L62.1058 90.9626Z" fill="url(#paint1_radial_8232_205)"/>
<path d="M2.59497 33.5593L7.52788 32.5453L66.049 31.9736L69.6916 33.5593H2.59497Z" fill="url(#paint2_radial_8232_205)"/>
<path d="M10.24 90.9628L12.517 89.1377H59.9317L62.1052 90.9628H10.24Z" fill="url(#paint3_radial_8232_205)"/>
<path d="M12.5171 89.1373L9.7646 41.677L62.4123 40.2371L59.9317 89.1373L62.1053 90.9624L63.8154 38.7217L7.6748 39.5891L10.24 90.9624L12.5171 89.1373Z" fill="#444671"/>
<path style="mix-blend-mode:screen" opacity="0.3" d="M31.866 39.216L63.8158 38.7223L62.9207 66.064C64.8472 66.6422 66.8018 67.1193 68.7767 67.4935L69.6916 33.5596H29.8794C30.3988 35.4935 31.063 37.3845 31.866 39.216Z" fill="url(#paint4_linear_8232_205)"/>
<path style="mix-blend-mode:screen" opacity="0.4" d="M5.16019 96.9923H64.0909C56.6163 95.6797 49.279 93.6609 42.1749 90.9622H10.2403L9.05702 67.2653C7.09428 64.7898 5.28626 62.192 3.64355 59.4873L5.16019 96.9923Z" fill="url(#paint5_linear_8232_205)"/>
<path d="M54.4746 33.5734L66.9228 34.2041L68.473 35.291L69.4307 43.2392L69.6915 33.5596L54.4746 33.5734Z" fill="#CFF6FF"/>
<path d="M17.9863 33.5596L32.9125 34.2899L41.7077 33.9248L48.8955 33.6038L17.9863 33.5596Z" fill="#CFF6FF"/>
<path d="M15.1106 90.9629L31.5596 92.4124L50.2489 90.9629H15.1106Z" fill="#CCCCCC"/>
</g>
<path d="M58.5516 19.5101L55.2467 24.2222C55.0516 24.5005 54.7321 24.6647 54.3923 24.6617L48.6383 24.6097C47.7828 24.602 47.2897 25.5789 47.804 26.2629L51.2627 30.8631C51.467 31.1347 51.5245 31.4894 51.4166 31.8117L49.589 37.2699C49.3173 38.0814 50.0938 38.8523 50.903 38.5744L56.3456 36.7055C56.6669 36.5952 57.022 36.65 57.2951 36.8522L61.9197 40.2774C62.6073 40.7867 63.5802 40.2862 63.5661 39.4305L63.471 33.6752C63.4654 33.3354 63.6272 33.0145 63.904 32.8173L68.5897 29.4761C69.2865 28.9794 69.1113 27.8991 68.2932 27.6481L62.7919 25.9601C62.4671 25.8604 62.212 25.6073 62.1101 25.2831L60.3813 19.7928C60.1242 18.9767 59.043 18.8096 58.5516 19.5101Z" fill="url(#paint6_linear_8232_205)"/>
<path d="M58.9229 19.549L55.7227 24.1117C55.5338 24.3811 55.2244 24.5402 54.8954 24.5372L49.3237 24.4869C48.4953 24.4794 48.0179 25.4254 48.5158 26.0877L51.865 30.5421C52.0628 30.8051 52.1185 31.1486 52.014 31.4607L50.2444 36.7457C49.9812 37.5315 50.7331 38.278 51.5167 38.0089L56.7868 36.1991C57.0979 36.0923 57.4417 36.1454 57.7061 36.3413L62.1841 39.6579C62.85 40.1511 63.792 39.6664 63.7783 38.8378L63.6862 33.265C63.6808 32.9359 63.8375 32.6253 64.1055 32.4343L68.6427 29.199C69.3173 28.718 69.1476 27.672 68.3556 27.4289L63.0286 25.7944C62.714 25.6979 62.4671 25.4528 62.3683 25.1389L60.6944 19.8227C60.4456 19.0324 59.3987 18.8706 58.9229 19.549Z" fill="url(#paint7_linear_8232_205)"/>
<path d="M59.0081 19.5574L55.8322 24.0857C55.6446 24.3531 55.3376 24.511 55.0112 24.5081L49.4816 24.4582C48.6594 24.4508 48.1856 25.3896 48.6798 26.0469L52.0037 30.4677C52.1999 30.7287 52.2552 31.0696 52.1515 31.3793L50.3953 36.6244C50.1342 37.4043 50.8804 38.1452 51.658 37.8781L56.8883 36.082C57.1971 35.9759 57.5383 36.0287 57.8006 36.223L62.2449 39.5147C62.9057 40.0041 63.8406 39.5232 63.827 38.7008L63.7356 33.17C63.7302 32.8434 63.8858 32.5351 64.1517 32.3456L68.6546 29.1348C69.3241 28.6573 69.1557 27.6192 68.3697 27.3781L63.083 25.7559C62.7708 25.6602 62.5258 25.4168 62.4277 25.1053L60.7664 19.8292C60.5194 19.0448 59.4803 18.8842 59.0081 19.5574Z" fill="url(#paint8_linear_8232_205)"/>
<path d="M58.5971 21.1786L55.8897 25.0387C55.7299 25.2666 55.4682 25.4012 55.1899 25.3987L50.4762 25.3561C49.7754 25.3497 49.3714 26.15 49.7927 26.7104L52.6261 30.4789C52.7935 30.7014 52.8406 30.992 52.7521 31.256L51.2551 35.7272C51.0324 36.3919 51.6686 37.0235 52.3315 36.7958L56.79 35.2648C57.0532 35.1743 57.3441 35.2194 57.5677 35.385L61.3561 38.1909C61.9194 38.6081 62.7164 38.1982 62.7048 37.4971L62.6269 32.7825C62.6223 32.5041 62.7549 32.2413 62.9816 32.0797L66.8201 29.3427C67.3907 28.9357 67.2473 28.0509 66.5772 27.8452L62.0706 26.4624C61.8045 26.3808 61.5956 26.1734 61.5121 25.9079L60.096 21.4103C59.8854 20.7417 58.9997 20.6048 58.5971 21.1786Z" fill="url(#paint9_linear_8232_205)"/>
<path d="M53.0354 30.2603C53.1983 30.4766 53.2437 30.7598 53.1577 31.0165L51.6999 35.3707C51.4833 36.018 52.1023 36.6325 52.7486 36.4108L57.0899 34.9203C57.3461 34.8322 57.6291 34.8759 57.8467 35.0373L61.5356 37.7692C62.084 38.1755 62.8605 37.7768 62.8485 37.0941L62.7922 33.6359L62.7735 32.5029C62.7682 32.232 62.8977 31.976 63.1184 31.8189L66.8559 29.1539C67.4118 28.7572 67.2722 27.8961 66.6191 27.6956L62.231 26.3493C61.9724 26.2699 61.7688 26.0678 61.687 25.8091L60.3082 21.4297C60.1036 20.779 59.2413 20.6456 58.849 21.2041L56.2128 24.9628C56.0576 25.1848 55.8025 25.316 55.5312 25.3135L50.9414 25.272C50.8626 25.271 50.7883 25.2808 50.7185 25.2993C50.1796 25.4422 49.9131 26.1076 50.2764 26.5908L53.0354 30.2603Z" fill="url(#paint10_linear_8232_205)"/>
<path d="M11.4775 20.0515L9.78353 25.5521C9.68358 25.8769 9.43015 26.1316 9.10594 26.2332L3.61527 27.955C2.79893 28.211 2.6305 29.2924 3.33038 29.7848L8.03726 33.0969C8.31519 33.2925 8.47912 33.6123 8.47563 33.9522L8.41694 39.7078C8.40824 40.5636 9.38432 41.058 10.0687 40.5446L14.6717 37.091C14.9435 36.8871 15.2982 36.83 15.6203 36.9383L21.0747 38.7736C21.8857 39.0465 22.6573 38.2708 22.3805 37.461L20.5183 32.0144C20.4084 31.6929 20.4636 31.3378 20.6662 31.0649L24.0959 26.4436C24.606 25.7565 24.1067 24.7826 23.2511 24.7956L17.4973 24.883C17.1576 24.8881 16.837 24.7258 16.6402 24.4487L13.3053 19.7573C12.8095 19.0599 11.7293 19.2337 11.4775 20.0515Z" fill="url(#paint11_linear_8232_205)"/>
<path d="M11.8425 19.9743L10.2022 25.3005C10.1054 25.615 9.86004 25.8617 9.54613 25.9601L4.22948 27.6273C3.43897 27.8752 3.27595 28.9222 3.95356 29.3991L8.51131 32.6062C8.78045 32.7956 8.93919 33.1052 8.93585 33.4343L8.87901 39.0075C8.87054 39.8361 9.81573 40.3149 10.4785 39.8177L14.9355 36.4735C15.1986 36.2761 15.5421 36.2208 15.8539 36.3257L21.1355 38.1029C21.9208 38.3672 22.6679 37.616 22.3998 36.8319L20.5967 31.558C20.4902 31.2466 20.5437 30.9028 20.7399 30.6386L24.0609 26.1637C24.5547 25.4984 24.0713 24.5554 23.2428 24.568L17.6713 24.6526C17.3424 24.6576 17.032 24.5004 16.8414 24.2322L13.6123 19.6894C13.1323 19.014 12.0864 19.1824 11.8425 19.9743Z" fill="url(#paint12_linear_8232_205)"/>
<path d="M11.9265 19.9559L10.2987 25.2419C10.2026 25.554 9.95909 25.7988 9.64759 25.8965L4.37114 27.5512C3.58661 27.7972 3.42479 28.8363 4.09738 29.3095L8.62065 32.4925C8.8877 32.6804 9.04528 32.9877 9.04193 33.3143L8.98557 38.8454C8.97722 39.6678 9.91523 40.1429 10.5729 39.6495L14.9963 36.3306C15.2575 36.1346 15.5983 36.0798 15.9078 36.1839L21.1494 37.9477C21.9288 38.21 22.6703 37.4646 22.4042 36.6863L20.6148 31.4522C20.5091 31.1431 20.5622 30.8019 20.7569 30.5397L24.0528 26.0987C24.5428 25.4384 24.063 24.5025 23.2409 24.515L17.7116 24.599C17.3851 24.604 17.0771 24.4479 16.8878 24.1817L13.6831 19.6732C13.2066 19.0029 12.1686 19.1699 11.9265 19.9559Z" fill="url(#paint13_linear_8232_205)"/>
<path d="M12.0341 21.6247L10.6465 26.1307C10.5646 26.3968 10.3569 26.6054 10.0914 26.6887L5.59348 28.0991C4.92473 28.3088 4.78676 29.1946 5.36009 29.5981L9.21595 32.3114C9.44365 32.4716 9.57796 32.7336 9.57503 33.012L9.52703 37.7269C9.51983 38.4279 10.3195 38.833 10.8801 38.4123L14.6508 35.5832C14.8734 35.4161 15.1641 35.3694 15.4278 35.4582L19.896 36.9617C20.5603 37.1852 21.1924 36.5498 20.9656 35.8864L19.4402 31.4246C19.3502 31.1612 19.3954 30.8704 19.5614 30.6468L22.3709 26.8612C22.7886 26.2983 22.3797 25.5005 21.6789 25.5111L16.9655 25.5827C16.6871 25.587 16.4246 25.4539 16.2633 25.227L13.5315 21.3838C13.1253 20.8124 12.2405 20.9548 12.0341 21.6247Z" fill="url(#paint14_linear_8232_205)"/>
<path d="M9.53843 31.978C9.76001 32.1337 9.89037 32.3891 9.88761 32.6599L9.8409 37.2514C9.8341 37.934 10.6122 38.328 11.1589 37.9182L14.8306 35.1637C15.0472 35.001 15.3299 34.9555 15.5866 35.042L19.9374 36.5057C20.5842 36.7235 21.2003 36.1051 20.9787 35.4593L19.8606 32.1863L19.4941 31.1141C19.4056 30.858 19.4501 30.5745 19.6116 30.3571L22.3473 26.6711C22.7541 26.1224 22.3563 25.3461 21.6732 25.3565L17.0837 25.4263C16.8132 25.4303 16.5572 25.3007 16.3998 25.0798L13.7398 21.3374C13.3448 20.7813 12.4834 20.9199 12.282 21.572L10.9309 25.9596C10.8516 26.2187 10.6492 26.4221 10.3903 26.5032L6.01062 27.8765C5.9354 27.8998 5.86772 27.9321 5.80699 27.9711C5.33819 28.273 5.28945 28.9881 5.78393 29.336L9.53843 31.978Z" fill="url(#paint15_linear_8232_205)"/>
<path d="M34.4409 3.43518L29.9783 12.3525C29.7149 12.879 29.2093 13.242 28.6262 13.3233L18.7524 14.7008C17.2844 14.9057 16.6884 16.7055 17.744 17.7465L24.8437 24.7482C25.263 25.1616 25.452 25.7548 25.3491 26.3347L23.6084 36.1539C23.3496 37.6138 24.8768 38.737 26.1927 38.0546L35.0431 33.4646C35.5657 33.1937 36.1882 33.1972 36.7076 33.474L45.5058 38.165C46.8139 38.8625 48.3536 37.7568 48.1114 36.2941L46.4814 26.4555C46.3853 25.8747 46.5808 25.2836 47.0047 24.875L54.183 17.9551C55.2504 16.9263 54.6748 15.1196 53.209 14.898L43.3512 13.4075C42.7692 13.3194 42.2677 12.9507 42.0103 12.4211L37.6484 3.45327C36.9999 2.12018 35.1044 2.10944 34.4409 3.43518Z" fill="url(#paint16_linear_8232_205)"/>
<path d="M35.0871 3.40512L30.766 12.0398C30.5109 12.5495 30.0213 12.9012 29.4568 12.9799L19.8959 14.3138C18.4743 14.512 17.8973 16.2549 18.9194 17.2629L25.7941 24.0427C26.2001 24.443 26.3831 25.0173 26.2836 25.5788L24.5981 35.0867C24.3474 36.5003 25.8262 37.588 27.1005 36.9271L35.6703 32.4825C36.1762 32.2201 36.779 32.2235 37.2819 32.4917L45.8012 37.034C47.0679 37.7094 48.5587 36.6388 48.3241 35.2223L46.7458 25.6958C46.6527 25.1333 46.8421 24.561 47.2526 24.1654L54.2033 17.4647C55.2367 16.4685 54.6794 14.7192 53.2601 14.5046L43.7147 13.0613C43.1512 12.9761 42.6656 12.619 42.4163 12.1062L38.1927 3.42266C37.565 2.13173 35.7296 2.12133 35.0871 3.40512Z" fill="url(#paint17_linear_8232_205)"/>
<path d="M35.2352 3.39951L30.9467 11.969C30.6935 12.475 30.2076 12.8239 29.6475 12.9021L20.1588 14.2259C18.748 14.4227 18.1753 16.1524 19.1898 17.1528L26.0126 23.8814C26.4154 24.2786 26.5971 24.8487 26.4983 25.4059L24.8256 34.8419C24.5769 36.245 26.0445 37.3244 27.309 36.6685L35.8141 32.2575C36.3163 31.997 36.9144 32.0004 37.4136 32.2667L45.8685 36.7748C47.1256 37.445 48.6052 36.3826 48.3723 34.9767L46.8061 25.522C46.7136 24.9638 46.9016 24.3958 47.309 24.0032L54.2071 17.3532C55.2327 16.3644 54.6795 14.6284 53.2711 14.4155L43.798 12.9831C43.2386 12.8986 42.7567 12.544 42.5092 12.0352L38.3175 3.41714C37.6942 2.13585 35.8727 2.12541 35.2352 3.39951Z" fill="url(#paint18_linear_8232_205)"/>
<path d="M34.9448 6.28182L31.2891 13.5867C31.0733 14.018 30.659 14.3154 30.1815 14.382L22.0929 15.5104C20.8904 15.6781 20.4021 17.1526 21.2669 18.0055L27.0829 23.7412C27.4264 24.0799 27.5813 24.5659 27.4969 25.0408L26.0711 33.0846C25.859 34.2805 27.1101 35.2006 28.1881 34.6415L35.4382 30.8814C35.8662 30.6594 36.3762 30.6624 36.8016 30.8892L44.0089 34.7321C45.0805 35.3035 46.3418 34.3978 46.1433 33.1994L44.8082 25.1399C44.7293 24.6641 44.8896 24.1799 45.2369 23.8452L51.1171 18.1765C51.9913 17.3337 51.5199 15.8538 50.3192 15.6722L42.244 14.4512C41.7671 14.3791 41.3563 14.0769 41.1454 13.6432L37.5724 6.29682C37.0411 5.20467 35.4884 5.1958 34.9448 6.28182Z" fill="url(#paint19_linear_8232_205)"/>
<path d="M27.7282 23.2644C28.0624 23.5937 28.2124 24.0674 28.1305 24.5293L26.7421 32.3625C26.5359 33.527 27.7534 34.4221 28.8044 33.8776L35.864 30.2169C36.2806 30.0006 36.7767 30.0033 37.1908 30.2244L44.2087 33.9658C45.2519 34.5223 46.4811 33.6411 46.2864 32.4743L45.3086 26.5624L44.9877 24.6256C44.9096 24.1627 45.0663 23.6909 45.4044 23.3655L51.13 17.846C51.9816 17.0244 51.5229 15.5844 50.3526 15.4073L42.4897 14.2186C42.0263 14.1483 41.6258 13.8539 41.4198 13.4315L37.9407 6.27802C37.4241 5.21508 35.9125 5.20636 35.3826 6.26331L31.823 13.3764C31.6137 13.7965 31.2099 14.0864 30.7443 14.1512L22.8684 15.2499C22.7332 15.2683 22.6083 15.3041 22.4935 15.3534C21.6063 15.7358 21.3192 16.9439 22.065 17.6794L27.7282 23.2644Z" fill="url(#paint20_linear_8232_205)"/>
<defs>
<radialGradient id="paint0_radial_8232_205" cx="0" cy="0" r="1" gradientUnits="userSpaceOnUse" gradientTransform="translate(45.4497 51.7404) rotate(125.427) scale(30.637 30.496)">
<stop stop-color="#4D1515"/>
<stop offset="0.8369" stop-color="#8C2727"/>
</radialGradient>
<radialGradient id="paint1_radial_8232_205" cx="0" cy="0" r="1" gradientUnits="userSpaceOnUse" gradientTransform="translate(69.3189 28.8851) scale(55.2619 56.0603)">
<stop offset="0.09168" stop-color="#8EA3AD"/>
<stop offset="0.93594" stop-color="#8F9499"/>
</radialGradient>
<radialGradient id="paint2_radial_8232_205" cx="0" cy="0" r="1" gradientUnits="userSpaceOnUse" gradientTransform="translate(77.2118 31.9736) scale(60.8701 61.7495)">
<stop stop-color="#ABD9D9"/>
<stop offset="1" stop-color="#97BFBF"/>
</radialGradient>
<radialGradient id="paint3_radial_8232_205" cx="0" cy="0" r="1" gradientUnits="userSpaceOnUse" gradientTransform="translate(81.7167 34.5778) scale(61.5123 62.4008)">
<stop stop-color="#444671"/>
<stop offset="1" stop-color="#444671"/>
</radialGradient>
<linearGradient id="paint4_linear_8232_205" x1="77.3375" y1="19.2277" x2="43.4931" y2="55.9772" gradientUnits="userSpaceOnUse">
<stop stop-color="#B5D9FF"/>
<stop offset="1"/>
</linearGradient>
<linearGradient id="paint5_linear_8232_205" x1="12.0119" y1="122.582" x2="39.873" y2="67.6534" gradientUnits="userSpaceOnUse">
<stop stop-color="#B5D9FF"/>
<stop offset="1"/>
</linearGradient>
<linearGradient id="paint6_linear_8232_205" x1="64.1922" y1="20.3125" x2="52.5495" y2="36.8441" gradientUnits="userSpaceOnUse">
<stop stop-color="#F8A45B"/>
<stop offset="0.2171" stop-color="#C97F40"/>
<stop offset="0.4733" stop-color="#985825"/>
<stop offset="0.6987" stop-color="#743C11"/>
<stop offset="0.8819" stop-color="#5E2B04"/>
<stop offset="1" stop-color="#562500"/>
</linearGradient>
<linearGradient id="paint7_linear_8232_205" x1="59.9996" y1="28.0206" x2="42.3912" y2="46.497" gradientUnits="userSpaceOnUse">
<stop stop-color="#F8A45B"/>
<stop offset="0.3936" stop-color="#CC7937"/>
<stop offset="0.7917" stop-color="#A55318"/>
<stop offset="1" stop-color="#96440C"/>
</linearGradient>
<linearGradient id="paint8_linear_8232_205" x1="61.1386" y1="24.1211" x2="51.8408" y2="38.9676" gradientUnits="userSpaceOnUse">
<stop stop-color="#F8A45B"/>
<stop offset="0.3936" stop-color="#CC7937"/>
<stop offset="0.7917" stop-color="#A55318"/>
<stop offset="1" stop-color="#96440C"/>
</linearGradient>
<linearGradient id="paint9_linear_8232_205" x1="63.8305" y1="22.7922" x2="47.0159" y2="42.6618" gradientUnits="userSpaceOnUse">
<stop stop-color="#F8A45B"/>
<stop offset="0.2171" stop-color="#C97F40"/>
<stop offset="0.4733" stop-color="#985825"/>
<stop offset="0.6987" stop-color="#743C11"/>
<stop offset="0.8819" stop-color="#5E2B04"/>
<stop offset="1" stop-color="#562500"/>
</linearGradient>
<linearGradient id="paint10_linear_8232_205" x1="58.6555" y1="-6.7968" x2="58.6555" y2="36.0214" gradientUnits="userSpaceOnUse">
<stop stop-color="#F8A45B"/>
<stop offset="0.2171" stop-color="#C97F40"/>
<stop offset="0.4733" stop-color="#985825"/>
<stop offset="0.6987" stop-color="#743C11"/>
<stop offset="0.8819" stop-color="#5E2B04"/>
<stop offset="1" stop-color="#562500"/>
</linearGradient>
<linearGradient id="paint11_linear_8232_205" x1="17.0911" y1="19.0786" x2="11.1026" y2="38.3914" gradientUnits="userSpaceOnUse">
<stop stop-color="#F8A45B"/>
<stop offset="0.2171" stop-color="#C97F40"/>
<stop offset="0.4733" stop-color="#985825"/>
<stop offset="0.6987" stop-color="#743C11"/>
<stop offset="0.8819" stop-color="#5E2B04"/>
<stop offset="1" stop-color="#562500"/>
</linearGradient>
<linearGradient id="paint12_linear_8232_205" x1="15.4748" y1="27.7032" x2="4.40888" y2="50.7027" gradientUnits="userSpaceOnUse">
<stop stop-color="#F8A45B"/>
<stop offset="0.3936" stop-color="#CC7937"/>
<stop offset="0.7917" stop-color="#A55318"/>
<stop offset="1" stop-color="#96440C"/>
</linearGradient>
<linearGradient id="paint13_linear_8232_205" x1="15.3584" y1="23.6421" x2="11.0822" y2="40.6298" gradientUnits="userSpaceOnUse">
<stop stop-color="#F8A45B"/>
<stop offset="0.3936" stop-color="#CC7937"/>
<stop offset="0.7917" stop-color="#A55318"/>
<stop offset="1" stop-color="#96440C"/>
</linearGradient>
<linearGradient id="paint14_linear_8232_205" x1="17.5101" y1="21.549" x2="7.6283" y2="45.6297" gradientUnits="userSpaceOnUse">
<stop stop-color="#F8A45B"/>
<stop offset="0.2171" stop-color="#C97F40"/>
<stop offset="0.4733" stop-color="#985825"/>
<stop offset="0.6987" stop-color="#743C11"/>
<stop offset="0.8819" stop-color="#5E2B04"/>
<stop offset="1" stop-color="#562500"/>
</linearGradient>
<linearGradient id="paint15_linear_8232_205" x1="3.47858" y1="-5.0097" x2="16.6591" y2="35.7294" gradientUnits="userSpaceOnUse">
<stop stop-color="#F8A45B"/>
<stop offset="0.2171" stop-color="#C97F40"/>
<stop offset="0.4733" stop-color="#985825"/>
<stop offset="0.6987" stop-color="#743C11"/>
<stop offset="0.8819" stop-color="#5E2B04"/>
<stop offset="1" stop-color="#562500"/>
</linearGradient>
<linearGradient id="paint16_linear_8232_205" x1="44.3114" y1="3.37243" x2="28.5732" y2="34.6698" gradientUnits="userSpaceOnUse">
<stop stop-color="#F8A45B"/>
<stop offset="0.2171" stop-color="#C97F40"/>
<stop offset="0.4733" stop-color="#985825"/>
<stop offset="0.6987" stop-color="#743C11"/>
<stop offset="0.8819" stop-color="#5E2B04"/>
<stop offset="1" stop-color="#562500"/>
</linearGradient>
<linearGradient id="paint17_linear_8232_205" x1="39.0915" y1="17.6484" x2="13.6257" y2="53.7988" gradientUnits="userSpaceOnUse">
<stop stop-color="#F8A45B"/>
<stop offset="0.3936" stop-color="#CC7937"/>
<stop offset="0.7917" stop-color="#A55318"/>
<stop offset="1" stop-color="#96440C"/>
</linearGradient>
<linearGradient id="paint18_linear_8232_205" x1="40.0492" y1="10.6771" x2="27.9" y2="38.489" gradientUnits="userSpaceOnUse">
<stop stop-color="#F8A45B"/>
<stop offset="0.3936" stop-color="#CC7937"/>
<stop offset="0.7917" stop-color="#A55318"/>
<stop offset="1" stop-color="#96440C"/>
</linearGradient>
<linearGradient id="paint19_linear_8232_205" x1="44.3244" y1="7.71306" x2="20.5739" y2="46.0486" gradientUnits="userSpaceOnUse">
<stop stop-color="#F8A45B"/>
<stop offset="0.2171" stop-color="#C97F40"/>
<stop offset="0.4733" stop-color="#985825"/>
<stop offset="0.6987" stop-color="#743C11"/>
<stop offset="0.8819" stop-color="#5E2B04"/>
<stop offset="1" stop-color="#562500"/>
</linearGradient>
<linearGradient id="paint20_linear_8232_205" x1="27.9142" y1="-41.6717" x2="38.8276" y2="31.7047" gradientUnits="userSpaceOnUse">
<stop stop-color="#F8A45B"/>
<stop offset="0.2171" stop-color="#C97F40"/>
<stop offset="0.4733" stop-color="#985825"/>
<stop offset="0.6987" stop-color="#743C11"/>
<stop offset="0.8819" stop-color="#5E2B04"/>
<stop offset="1" stop-color="#562500"/>
</linearGradient>
<clipPath id="clip0_8232_205">
<rect width="67.0967" height="67.0967" fill="white" transform="translate(2.59497 31.9736)"/>
</clipPath>
</defs>
</svg>
